{"glyphs":{"0":{"ha":1100,"x_min":67,"x_max":1036,"o":"m 1033 501 q 1007 278 1036 376 q 919 110 978 179 q 769 5 860 42 q 554 -32 678 -32 q 192 94 310 -32 q 67 471 74 221 q 93 696 67 597 q 178 863 119 794 q 328 968 236 932 q 554 1004 421 1004 q 915 876 801 1004 q 1033 501 1029 747 m 210 486 q 294 184 210 282 q 546 86 378 86 l 564 86 q 810 187 732 86 q 889 486 889 288 q 810 785 889 685 q 564 886 732 886 l 546 886 q 293 789 376 886 q 210 486 210 692 z "},"1":{"ha":926,"x_min":111,"x_max":871,"o":"m 871 122 l 871 0 l 111 0 l 111 122 l 471 122 l 471 876 l 256 472 l 113 472 l 383 972 l 607 972 l 607 122 l 871 122 z "},"2":{"ha":1017,"x_min":56,"x_max":933,"o":"m 933 122 l 933 0 l 61 0 l 61 203 q 345 325 215 272 q 571 428 475 378 q 722 535 667 479 q 781 668 776 592 q 775 721 782 686 q 741 790 768 756 q 658 852 714 825 q 507 881 603 879 q 275 814 349 883 q 203 614 201 744 l 56 614 q 72 753 56 685 q 138 876 89 822 q 274 965 186 931 q 507 999 363 999 q 673 981 604 999 q 788 935 742 964 q 862 871 835 907 q 903 799 889 835 q 921 730 917 763 q 925 675 925 697 q 865 485 925 563 q 703 349 806 408 q 468 237 601 289 q 186 122 335 185 l 933 122 z "},"3":{"ha":1028,"x_min":19,"x_max":996,"o":"m 994 315 q 951 138 996 206 q 834 33 907 71 q 669 -17 761 -4 q 486 -31 578 -31 q 279 -3 367 -31 q 134 71 192 25 q 48 176 76 117 q 19 297 19 235 l 168 297 q 190 222 168 258 q 254 156 211 185 q 362 108 297 126 q 514 90 426 90 q 681 108 615 90 q 784 154 746 125 q 837 220 822 183 q 851 296 851 257 q 839 369 851 338 q 796 421 826 400 q 713 452 765 442 q 578 463 660 463 l 232 463 l 232 633 l 800 853 l 83 847 l 83 972 l 917 972 l 917 764 l 421 582 l 568 585 l 568 586 l 571 586 l 575 585 l 578 585 l 581 586 l 581 585 q 734 575 660 585 q 866 538 808 565 q 958 456 924 510 q 994 315 993 403 z "},"4":{"ha":1042,"x_min":97,"x_max":944,"o":"m 944 972 l 944 0 l 808 0 l 808 367 l 97 367 l 97 972 l 233 972 l 233 492 l 808 492 l 808 972 l 944 972 z "},"5":{"ha":1056,"x_min":74,"x_max":981,"o":"m 981 331 q 946 167 981 236 q 851 55 911 99 q 710 -10 790 11 q 539 -31 629 -31 q 348 -12 433 -31 q 201 43 263 6 q 107 140 140 81 q 74 282 74 199 l 221 282 q 238 204 221 239 q 291 144 254 169 q 387 106 328 119 q 531 92 446 92 q 675 108 617 92 q 769 155 733 124 q 822 233 806 186 q 838 342 838 279 q 814 435 838 397 q 749 497 790 474 q 652 531 708 521 q 531 542 596 542 q 376 522 431 542 q 293 479 321 503 q 254 417 261 451 l 253 419 l 253 417 l 117 417 l 117 972 l 907 972 l 907 849 l 253 849 l 253 586 q 358 639 289 614 q 546 664 428 664 q 714 648 635 664 q 852 594 793 632 q 946 492 911 556 q 981 331 981 428 z "},"6":{"ha":1038,"x_min":57,"x_max":971,"o":"m 971 331 q 936 162 971 231 q 841 50 901 93 q 699 -12 781 7 q 524 -32 618 -32 q 345 -15 431 -32 q 195 50 260 1 q 94 188 131 99 q 60 422 57 276 q 77 658 60 551 q 147 842 94 765 q 294 962 199 919 q 547 1004 390 1004 q 720 978 647 1004 q 841 913 793 953 q 912 826 889 874 q 935 733 935 778 l 789 732 q 750 807 781 774 q 675 858 725 835 q 538 882 625 882 q 372 854 436 882 q 269 781 307 826 q 217 678 232 736 q 201 560 203 621 q 234 583 211 567 q 296 615 257 599 q 392 644 335 632 q 525 657 449 657 q 701 638 619 657 q 842 580 782 619 q 936 478 901 540 q 971 331 971 417 m 199 328 q 222 220 199 265 q 286 146 244 175 q 384 103 328 117 q 507 90 440 90 q 634 100 575 90 q 736 136 693 110 q 803 210 779 163 q 828 332 828 257 q 747 485 828 433 q 507 538 665 538 q 381 524 438 538 q 283 483 324 510 q 221 417 243 456 q 199 328 199 378 z "},"7":{"ha":869,"x_min":4,"x_max":861,"o":"m 861 850 l 311 0 l 146 0 l 696 850 l 4 850 l 4 972 l 861 972 l 861 850 z "},"8":{"ha":1067,"x_min":58,"x_max":1019,"o":"m 1019 288 q 994 145 1019 206 q 912 45 968 85 q 769 -14 856 6 q 558 -33 682 -33 l 529 -32 q 171 47 283 -32 q 58 288 58 125 q 72 379 58 339 q 110 449 86 419 q 167 501 135 479 q 235 538 199 524 q 157 615 186 569 q 128 724 128 661 q 150 841 128 789 q 220 929 172 893 q 344 985 268 965 q 529 1004 421 1004 q 681 996 606 1004 q 815 958 756 988 q 912 874 875 929 q 949 724 949 818 q 921 616 949 661 q 847 539 893 571 q 913 503 882 525 q 968 451 944 481 q 1006 381 992 421 q 1019 288 1019 340 m 272 719 q 299 643 272 671 q 365 602 325 615 q 452 585 406 589 q 538 582 499 582 l 553 582 q 638 585 593 582 q 719 602 682 589 q 781 643 757 615 q 806 719 806 671 q 790 800 806 768 q 742 851 774 832 q 663 877 710 869 q 553 885 615 885 l 538 885 q 426 877 475 885 q 342 851 376 869 q 290 800 308 832 q 272 719 272 768 m 203 274 q 238 169 203 207 q 325 114 274 132 q 434 92 376 96 q 536 89 492 89 l 550 89 q 651 93 594 89 q 757 115 707 97 q 841 171 807 133 q 875 275 875 208 q 858 367 875 331 q 804 424 842 403 q 707 455 767 446 q 561 464 647 464 l 543 464 q 390 456 454 464 q 283 426 325 447 q 222 367 242 404 q 203 274 203 331 z "},"9":{"ha":1019,"x_min":53,"x_max":967,"o":"m 964 551 q 949 315 964 422 q 884 131 933 208 q 741 11 835 54 q 490 -32 647 -32 q 315 -6 390 -32 q 190 59 240 19 q 114 147 139 99 q 89 240 89 196 l 235 240 q 281 165 247 199 q 360 114 308 138 q 500 90 413 90 q 659 116 597 90 q 756 185 721 142 q 806 285 792 229 q 822 403 821 342 q 786 383 813 396 q 717 356 760 369 q 613 332 674 342 q 476 322 553 322 q 305 340 383 322 q 171 396 226 357 q 84 495 115 435 q 53 642 53 556 q 88 810 53 742 q 183 922 122 879 q 325 985 243 965 q 500 1004 407 1004 q 679 988 594 1004 q 828 924 764 972 q 930 786 893 875 q 964 551 967 697 m 196 640 q 277 490 196 536 q 517 443 358 443 q 643 456 586 443 q 740 494 700 469 q 803 557 781 519 q 825 644 825 594 q 804 758 825 713 q 744 831 783 803 q 647 870 704 858 q 517 882 589 882 q 390 872 449 882 q 288 836 331 863 q 220 763 244 810 q 196 640 196 715 z "},"`":{"ha":694,"x_min":0,"x_max":0,"o":""},"\u0000":{"ha":0,"x_min":0,"x_max":0,"o":""},"\r":{"ha":347,"x_min":0,"x_max":0,"o":""}," ":{"ha":667,"x_min":0,"x_max":0,"o":""},"O":{"ha":1217,"x_min":42,"x_max":1175,"o":"m 42 496 q 88 724 46 628 q 205 881 131 819 q 381 973 279 943 q 608 1003 483 1003 q 835 972 733 1003 q 1012 878 938 940 q 1128 720 1086 815 q 1175 496 1171 625 l 1175 471 q 1128 247 1171 342 q 1012 90 1086 151 q 835 -1 938 29 q 608 -31 733 -31 q 381 -1 483 -31 q 205 91 279 29 q 88 247 131 153 q 42 471 46 342 l 42 496 m 608 881 q 434 856 513 881 q 301 781 356 831 q 216 658 246 732 q 186 483 186 583 q 216 315 186 388 q 301 192 246 242 q 434 117 356 143 q 608 92 513 92 q 783 117 704 92 q 916 191 861 142 q 1001 313 971 240 q 1031 483 1031 386 q 1001 653 1031 579 q 916 777 971 726 q 783 854 861 828 q 608 881 704 881 z "},"H":{"ha":1192,"x_min":97,"x_max":1094,"o":"m 233 465 l 233 0 l 97 0 l 97 972 l 233 972 l 233 588 l 958 588 l 958 972 l 1094 972 l 1094 0 l 958 0 l 958 465 l 233 465 z "},"ԯ":{"ha":1244,"x_min":28,"x_max":1229,"o":"m 928 335 l 357 0 l 28 0 l 381 531 l 382 972 l 792 972 l 792 971 l 794 972 l 1229 0 l 1078 0 l 928 335 m 518 490 l 254 94 l 874 460 l 699 850 l 518 850 l 518 490 z "},"A":{"ha":1217,"x_min":14,"x_max":1203,"o":"m 310 294 l 165 0 l 14 0 l 493 972 l 724 972 l 1203 0 l 1050 0 l 906 294 l 310 294 m 371 417 l 844 417 l 608 897 l 371 417 z "},"V":{"ha":1175,"x_min":42,"x_max":1133,"o":"m 1133 972 l 701 0 l 472 0 l 42 972 l 192 972 l 589 76 l 985 972 l 1133 972 z "},"W":{"ha":1517,"x_min":63,"x_max":1454,"o":"m 761 883 l 588 0 l 342 0 l 63 972 l 204 972 l 463 72 l 639 972 l 882 972 l 1057 81 l 1313 972 l 1454 972 l 1175 0 l 933 0 l 761 883 z "},"C":{"ha":1194,"x_min":56,"x_max":1139,"o":"m 1139 310 q 961 52 1099 135 q 608 -31 824 -31 q 375 4 478 -31 q 201 103 272 39 q 93 261 131 168 q 56 471 56 354 l 56 496 q 93 711 56 617 q 201 870 131 806 q 375 969 272 935 q 608 1003 478 1003 q 810 981 719 1003 q 969 913 901 958 q 1079 800 1036 868 q 1136 640 1122 732 l 986 640 q 940 740 972 694 q 859 817 907 785 q 748 867 811 850 q 608 885 685 885 q 431 855 507 885 q 303 772 354 825 q 226 645 251 719 q 200 482 200 571 q 226 325 200 397 q 303 200 251 253 q 431 117 354 147 q 608 88 507 88 q 863 147 763 88 q 992 310 964 206 l 1139 310 z "},"G":{"ha":1233,"x_min":43,"x_max":1149,"o":"m 1013 143 q 857 19 957 68 q 597 -31 757 -31 q 364 3 467 -31 q 190 102 261 38 q 81 259 118 167 q 43 469 43 351 l 43 496 q 81 714 43 619 q 190 873 118 808 q 364 970 261 938 q 597 1003 467 1003 q 956 913 818 1003 q 1125 640 1094 822 l 978 640 q 931 740 964 694 q 849 816 899 785 q 737 865 800 847 q 597 882 674 882 q 419 853 496 882 q 290 771 342 824 q 213 645 239 718 q 188 483 188 572 q 213 326 188 399 q 290 202 239 254 q 419 120 342 150 q 597 90 496 90 q 767 113 694 90 q 890 174 839 135 q 970 263 940 213 q 1010 371 1000 314 l 483 371 l 483 496 l 1149 496 l 1149 1 l 1013 1 l 1013 143 z "},"N":{"ha":1197,"x_min":97,"x_max":1100,"o":"m 233 882 l 233 0 l 97 0 l 97 972 l 335 972 l 965 90 l 965 972 l 1100 972 l 1100 0 l 861 0 l 233 882 z "},"T":{"ha":1057,"x_min":28,"x_max":1029,"o":"m 596 850 l 596 0 l 460 0 l 460 850 l 28 850 l 28 972 l 1029 972 l 1029 850 l 596 850 z "},"E":{"ha":1081,"x_min":97,"x_max":1025,"o":"m 1025 122 l 1025 0 l 97 0 l 97 972 l 979 972 l 979 850 l 233 850 l 233 588 l 839 588 l 839 465 l 233 465 l 233 122 l 1025 122 z "},"L":{"ha":964,"x_min":97,"x_max":922,"o":"m 922 122 l 922 0 l 97 0 l 97 972 l 233 972 l 233 122 l 922 122 z "},"F":{"ha":1001,"x_min":97,"x_max":974,"o":"m 233 424 l 233 0 l 97 0 l 97 972 l 974 972 l 974 850 l 233 850 l 233 546 l 833 546 l 833 424 l 233 424 z "},"K":{"ha":1269,"x_min":97,"x_max":1228,"o":"m 233 160 l 233 0 l 97 0 l 97 972 l 233 972 l 233 322 l 1017 972 l 1218 972 l 814 639 l 1228 0 l 1065 0 l 708 551 l 233 160 z "},"B":{"ha":1172,"x_min":97,"x_max":1117,"o":"m 1117 283 q 1022 66 1117 132 q 743 0 926 0 l 97 0 l 97 972 l 704 972 q 852 962 786 972 q 965 924 918 951 q 1038 852 1013 897 q 1064 736 1064 807 q 1032 613 1064 661 q 950 536 1000 565 q 1074 449 1032 507 q 1117 283 1117 392 m 233 585 l 692 585 q 794 590 751 585 q 865 611 838 596 q 905 653 892 626 q 918 722 918 681 q 903 790 918 764 q 860 828 889 815 q 789 846 832 842 q 689 850 746 850 l 233 850 l 233 585 m 233 122 l 743 122 q 858 134 814 122 q 927 169 903 146 q 960 224 951 192 q 969 294 969 256 q 961 365 969 335 q 928 418 953 396 q 858 451 903 440 q 739 463 813 463 l 233 463 l 233 122 z "},"D":{"ha":1136,"x_min":97,"x_max":1094,"o":"m 1094 513 q 1062 276 1094 374 q 966 118 1029 179 q 811 28 903 57 q 601 0 719 0 l 97 0 l 97 972 l 531 972 q 663 967 596 972 q 793 944 731 961 q 910 897 856 928 q 1006 817 965 867 q 1071 694 1047 767 q 1094 519 1094 621 l 1094 513 m 233 122 l 554 122 q 758 149 681 122 q 878 224 836 175 q 935 344 921 274 q 950 501 950 414 q 928 658 950 593 q 856 766 906 724 q 728 828 807 808 q 538 850 650 849 l 233 850 l 233 122 z "},"J":{"ha":1083,"x_min":56,"x_max":1042,"o":"m 803 343 q 772 153 803 226 q 688 40 740 81 q 567 -15 636 -1 q 424 -29 499 -29 q 306 -15 371 -29 q 186 40 242 0 q 93 153 131 81 q 56 343 56 226 l 196 343 q 252 149 196 206 q 426 93 308 93 q 601 142 536 93 q 665 313 665 192 l 665 849 l 269 849 l 271 972 l 1042 972 l 1042 849 l 803 849 l 803 343 z "},"I":{"ha":1076,"x_min":97,"x_max":993,"o":"m 993 122 l 993 0 l 97 0 l 97 122 l 474 122 l 474 850 l 97 850 l 97 972 l 993 972 l 993 850 l 610 850 l 610 122 l 993 122 z "},"Z":{"ha":1128,"x_min":56,"x_max":1072,"o":"m 1068 122 l 1068 0 l 56 0 l 56 203 l 957 850 l 76 850 l 76 972 l 1072 972 l 1072 765 l 175 121 l 1068 122 z "},"Š":{"ha":1199,"x_min":60,"x_max":1138,"o":"m 796 -7 q 797 -69 797 -40 q 794 -135 797 -99 l 663 -136 q 664 -90 664 -112 q 665 -50 665 -71 q 664 -14 665 -29 q 613 -15 639 -15 q 576 -15 588 -15 q 347 10 444 -15 q 186 78 250 35 q 91 181 122 122 q 60 306 60 239 q 82 410 60 364 q 143 489 104 457 q 235 538 182 521 q 351 556 289 556 q 521 525 444 556 q 653 438 597 494 q 742 299 708 381 q 786 115 776 218 q 860 131 824 119 q 926 161 897 142 q 972 210 954 181 q 989 278 989 239 q 974 332 989 304 q 924 392 960 360 q 825 464 888 425 q 666 552 763 503 q 435 661 569 601 q 118 796 300 721 l 118 972 l 1063 972 l 1063 846 l 328 854 q 708 681 554 753 q 956 549 861 610 q 1093 428 1051 488 q 1136 290 1135 368 q 1104 149 1138 204 q 1019 63 1071 94 q 908 15 968 31 q 796 -7 847 0 m 207 297 q 234 215 207 249 q 305 160 261 181 q 401 127 349 139 q 504 111 454 115 q 595 107 554 107 q 656 107 636 107 q 624 235 646 176 q 565 339 601 294 q 474 408 528 383 q 349 433 421 433 q 279 421 307 433 q 235 389 251 408 q 213 345 219 369 q 207 297 207 321 z "},"Ѕ":{"ha":1114,"x_min":57,"x_max":1058,"o":"m 1058 268 q 1033 148 1058 203 q 947 53 1007 93 q 790 -8 888 14 q 546 -31 692 -31 q 308 3 400 -31 q 162 88 215 36 q 85 203 108 140 q 57 328 63 267 l 204 328 q 299 153 213 215 q 550 92 386 92 q 817 131 719 92 q 917 258 915 171 q 831 383 918 346 q 558 432 743 421 q 347 449 436 436 q 199 490 257 461 q 113 569 140 519 q 85 700 85 619 q 113 814 85 760 q 201 909 140 868 q 356 974 261 950 q 583 999 450 999 q 816 967 726 999 q 958 885 906 935 q 1031 772 1010 835 q 1058 649 1053 710 l 911 649 q 879 758 906 714 q 809 828 853 801 q 707 865 765 854 q 579 876 649 876 q 435 867 500 876 q 324 837 371 857 q 252 785 278 817 q 226 710 226 754 q 247 638 226 667 q 310 592 267 610 q 420 566 353 575 q 579 551 488 557 q 797 528 707 544 q 946 481 888 513 q 1031 397 1004 449 q 1058 268 1058 346 z "},"S":{"ha":1114,"x_min":57,"x_max":1058,"o":"m 1058 268 q 1033 148 1058 203 q 947 53 1007 93 q 790 -8 888 14 q 546 -31 692 -31 q 308 3 400 -31 q 162 88 215 36 q 85 203 108 140 q 57 328 63 267 l 204 328 q 299 153 213 215 q 550 92 386 92 q 817 131 719 92 q 917 258 915 171 q 831 383 918 346 q 558 432 743 421 q 347 449 436 436 q 199 490 257 461 q 113 569 140 519 q 85 700 85 619 q 113 814 85 760 q 201 909 140 868 q 356 974 261 950 q 583 999 450 999 q 816 967 726 999 q 958 885 906 935 q 1031 772 1010 835 q 1058 649 1053 710 l 911 649 q 879 758 906 714 q 809 828 853 801 q 707 865 765 854 q 579 876 649 876 q 435 867 500 876 q 324 837 371 857 q 252 785 278 817 q 226 710 226 754 q 247 638 226 667 q 310 592 267 610 q 420 566 353 575 q 579 551 488 557 q 797 528 707 544 q 946 481 888 513 q 1031 397 1004 449 q 1058 268 1058 346 z "},"О":{"ha":1217,"x_min":42,"x_max":1175,"o":"m 1175 488 q 1133 255 1175 353 q 1017 93 1092 157 q 838 -1 942 29 q 608 -31 733 -31 q 379 2 483 -31 q 200 99 275 35 q 83 260 125 164 q 42 486 42 357 q 83 717 42 618 q 200 883 125 817 q 379 983 275 950 q 608 1017 483 1017 q 838 982 733 1017 q 1017 881 942 947 q 1133 715 1092 814 q 1175 488 1175 617 m 186 483 q 216 315 186 388 q 301 192 246 242 q 434 117 356 143 q 608 92 513 92 q 783 117 704 92 q 916 191 861 142 q 1001 313 971 240 q 1031 483 1031 386 q 1001 655 1031 579 q 916 784 971 731 q 783 866 861 838 q 608 894 704 894 q 434 867 513 894 q 301 788 356 840 q 216 660 246 736 q 186 483 186 583 z "},"Т":{"ha":1029,"x_min":17,"x_max":1018,"o":"m 585 850 l 585 0 l 449 0 l 449 850 l 17 850 l 17 972 l 1018 972 l 1018 850 l 585 850 z "},"С":{"ha":1167,"x_min":42,"x_max":1125,"o":"m 1125 310 q 947 52 1085 135 q 594 -31 810 -31 q 361 4 464 -31 q 188 103 258 39 q 79 261 117 168 q 42 471 42 354 l 42 496 q 79 711 42 617 q 188 870 117 806 q 361 969 258 935 q 594 1003 464 1003 q 797 981 706 1003 q 955 913 888 958 q 1065 800 1022 868 q 1122 640 1108 732 l 972 640 q 926 740 958 694 q 845 817 893 785 q 734 867 797 850 q 594 885 671 885 q 417 855 493 885 q 289 772 340 825 q 212 645 238 719 q 186 482 186 571 q 212 325 186 397 q 289 200 238 253 q 417 117 340 147 q 594 88 493 88 q 849 147 749 88 q 978 310 950 206 l 1125 310 z "},"А":{"ha":1218,"x_min":14,"x_max":1203,"o":"m 311 294 l 165 0 l 14 0 l 493 972 l 724 972 l 1203 0 l 1050 0 l 906 294 l 311 294 m 371 417 l 846 417 l 608 897 l 371 417 z "},"Р":{"ha":1114,"x_min":97,"x_max":1079,"o":"m 233 356 l 233 0 l 97 0 l 97 972 l 742 972 q 881 952 818 972 q 987 892 943 932 q 1055 793 1031 853 q 1079 654 1079 733 q 1051 521 1076 578 q 983 428 1026 464 q 878 374 939 392 q 742 356 817 356 l 233 356 m 233 478 l 736 478 q 881 525 826 478 q 935 663 935 572 q 881 801 935 751 q 736 850 826 850 l 233 850 l 233 478 z "},"Г":{"ha":903,"x_min":111,"x_max":901,"o":"m 247 850 l 247 0 l 111 0 l 111 972 l 901 972 l 901 850 l 247 850 z "},"В":{"ha":1197,"x_min":97,"x_max":1117,"o":"m 1117 283 q 1022 66 1117 132 q 743 0 926 0 l 97 0 l 97 972 l 704 972 q 852 962 786 972 q 965 924 918 951 q 1038 852 1013 897 q 1064 736 1064 807 q 1032 613 1064 661 q 950 536 1000 565 q 1074 449 1032 507 q 1117 283 1117 392 m 233 585 l 692 585 q 794 590 751 585 q 865 611 838 596 q 905 653 892 626 q 918 722 918 681 q 903 790 918 764 q 860 828 889 815 q 789 846 832 842 q 689 850 746 850 l 233 850 l 233 585 m 233 122 l 743 122 q 858 134 814 122 q 927 169 903 146 q 960 224 951 192 q 969 294 969 256 q 961 365 969 335 q 928 418 953 396 q 858 451 903 440 q 739 463 813 463 l 233 463 l 233 122 z "},"Б":{"ha":1192,"x_min":97,"x_max":1108,"o":"m 1108 296 q 1086 157 1108 214 q 1017 65 1064 100 q 899 15 971 31 q 728 0 828 0 l 97 0 l 97 972 l 1026 972 l 1026 850 l 233 850 l 233 589 l 729 589 q 907 574 835 589 q 1024 525 979 560 q 1089 434 1069 490 q 1108 296 1108 378 m 233 122 l 717 122 q 816 128 771 122 q 894 153 861 135 q 944 206 926 171 q 961 296 961 240 q 944 386 961 353 q 894 438 926 419 q 817 461 863 456 q 718 467 772 467 l 233 467 l 233 122 z "},"Е":{"ha":1082,"x_min":97,"x_max":1025,"o":"m 1025 122 l 1025 0 l 97 0 l 97 972 l 979 972 l 979 850 l 233 850 l 233 588 l 839 588 l 839 465 l 233 465 l 233 122 l 1025 122 z "},"М":{"ha":1474,"x_min":56,"x_max":1418,"o":"m 440 899 l 200 0 l 56 0 l 315 972 l 564 972 l 742 96 l 918 972 l 1158 972 l 1418 0 l 1278 0 l 1040 889 l 861 0 l 622 0 l 440 899 z "},"Н":{"ha":1192,"x_min":97,"x_max":1094,"o":"m 233 465 l 233 0 l 97 0 l 97 972 l 233 972 l 233 588 l 958 588 l 958 972 l 1094 972 l 1094 0 l 958 0 l 958 465 l 233 465 z "},"П":{"ha":1125,"x_min":97,"x_max":1028,"o":"m 233 850 l 233 0 l 97 0 l 97 972 l 1028 972 l 1028 0 l 892 0 l 892 850 l 233 850 z "},"Д":{"ha":1304,"x_min":42,"x_max":1249,"o":"m 178 0 l 178 -192 l 42 -192 l 42 122 l 69 122 q 187 181 140 126 q 263 319 233 236 q 307 501 292 401 q 328 693 322 600 q 335 862 335 786 q 339 972 336 938 l 1111 972 l 1111 122 l 1249 122 l 1249 -192 l 1113 -192 l 1113 0 l 178 0 m 471 850 q 461 667 467 767 q 439 469 456 568 q 392 279 422 369 q 310 122 363 189 l 975 122 l 975 850 l 471 850 z "},"Ш":{"ha":1426,"x_min":97,"x_max":1329,"o":"m 1329 972 l 1329 0 l 97 0 l 97 972 l 233 972 l 233 122 l 649 122 l 649 972 l 785 972 l 785 122 l 1193 122 l 1193 972 l 1329 972 z "},"Щ":{"ha":1546,"x_min":111,"x_max":1476,"o":"m 1476 124 l 1476 -192 l 1339 -192 l 1339 0 l 111 0 l 111 972 l 247 972 l 247 122 l 663 122 l 663 972 l 799 972 l 799 122 l 1207 122 l 1207 972 l 1343 972 l 1343 124 l 1476 124 z "},"Ӂ":{"ha":1440,"x_min":-67,"x_max":1421,"o":"m 439 506 l 93 0 l -67 0 l 275 506 l -18 506 l 289 972 l 439 972 l 214 624 l 636 624 l 636 972 l 769 972 l 769 624 l 956 624 l 1190 972 l 1344 972 l 1083 582 l 1421 0 l 1265 0 l 964 506 l 754 506 l 754 0 l 621 0 l 621 506 l 439 506 z "},"Ж":{"ha":1621,"x_min":7,"x_max":1614,"o":"m 738 489 l 201 0 l 7 0 l 589 528 l 49 972 l 263 972 l 738 581 l 738 972 l 874 972 l 874 578 l 1350 972 l 1556 972 l 1025 532 l 1614 0 l 1411 0 l 874 488 l 874 0 l 738 0 l 738 489 z "},"И":{"ha":1188,"x_min":97,"x_max":1090,"o":"m 954 875 l 331 0 l 97 0 l 97 972 l 233 972 l 233 99 l 857 972 l 1090 972 l 1090 0 l 954 0 l 954 875 z "},"Й":{"ha":1188,"x_min":96,"x_max":1092,"o":"m 946 1329 q 918 1210 946 1263 q 842 1119 890 1157 q 726 1062 793 1082 q 582 1042 660 1042 q 438 1060 504 1042 q 322 1116 371 1079 q 244 1206 272 1153 q 217 1329 217 1260 l 351 1329 q 413 1197 353 1242 q 582 1153 474 1153 q 752 1202 690 1153 q 814 1329 814 1251 l 946 1329 m 953 875 l 331 -1 l 96 -1 l 96 974 l 235 974 l 235 99 l 856 974 l 1092 974 l 1092 -1 l 953 -1 l 953 875 z "},"Ц":{"ha":1206,"x_min":97,"x_max":1136,"o":"m 1136 125 l 1136 -186 l 999 -186 l 999 0 l 97 0 l 97 972 l 233 972 l 233 122 l 864 122 l 864 972 l 1000 972 l 1000 125 l 1136 125 z "},"К":{"ha":1268,"x_min":97,"x_max":1226,"o":"m 233 421 l 233 0 l 97 0 l 97 972 l 233 972 l 233 549 l 676 549 l 997 972 l 1165 972 l 803 500 l 1226 0 l 1049 0 l 692 421 l 233 421 z "},"Л":{"ha":1225,"x_min":42,"x_max":1128,"o":"m 1128 972 l 1128 0 l 993 0 l 993 850 l 440 850 l 410 403 q 368 188 400 268 q 288 67 336 108 q 176 13 239 25 q 42 0 113 0 l 42 128 q 155 147 113 128 q 222 201 197 165 q 256 288 246 236 q 272 404 265 339 l 315 972 l 1128 972 z "},"У":{"ha":1126,"x_min":42,"x_max":1115,"o":"m 703 221 q 617 92 658 140 q 534 17 575 43 q 451 -18 493 -10 q 364 -26 410 -26 q 249 -12 304 -26 q 150 42 193 3 q 82 151 107 82 q 57 328 57 219 l 194 328 q 235 152 194 207 q 354 97 275 97 q 426 109 396 97 q 481 143 457 121 q 527 197 506 165 q 574 271 549 229 l 485 271 l 42 972 l 207 972 l 610 335 l 958 972 l 1115 972 l 703 221 z "},"Ь":{"ha":1097,"x_min":97,"x_max":1056,"o":"m 1056 318 q 1035 192 1056 250 q 972 90 1015 133 q 858 24 928 47 q 689 0 788 0 l 97 0 l 97 972 l 233 972 l 233 614 l 660 614 q 823 599 750 614 q 947 551 896 585 q 1027 460 999 517 q 1056 318 1056 403 m 233 122 l 683 122 q 780 131 738 122 q 851 160 822 139 q 896 217 881 181 q 911 307 911 253 q 856 451 911 410 q 679 492 800 492 l 233 492 l 233 122 z "},"Ъ":{"ha":1215,"x_min":0,"x_max":1149,"o":"m 1149 318 q 1128 192 1149 250 q 1065 90 1108 133 q 951 24 1021 47 q 782 0 881 0 l 190 0 l 190 853 l 0 853 l 0 972 l 326 972 l 326 614 l 754 614 q 916 599 843 614 q 1040 551 989 585 q 1120 460 1092 517 q 1149 318 1149 403 m 326 122 l 776 122 q 873 131 831 122 q 944 160 915 139 q 989 217 974 181 q 1004 307 1004 253 q 949 451 1004 410 q 772 492 893 492 l 326 492 l 326 122 z "},"Ы":{"ha":1356,"x_min":97,"x_max":1258,"o":"m 1258 972 l 1258 0 l 97 0 l 97 972 l 233 972 l 233 614 l 578 614 q 740 599 667 614 q 864 551 813 585 q 944 460 915 517 q 972 318 972 403 q 900 122 972 203 l 1122 122 l 1122 972 l 1258 972 m 233 122 l 600 122 q 696 131 654 122 q 767 160 738 139 q 810 217 796 181 q 825 307 825 253 q 771 451 825 410 q 596 492 717 492 l 233 492 l 233 122 z "},"Я":{"ha":1154,"x_min":56,"x_max":1057,"o":"m 1057 972 l 1057 0 l 921 0 l 921 356 l 414 356 l 213 1 l 56 1 l 271 374 q 127 469 179 401 q 71 654 75 538 q 95 793 71 733 q 163 892 119 853 q 269 952 207 932 q 408 972 332 972 l 1057 972 m 215 663 q 269 525 215 572 q 414 478 324 478 l 921 478 l 921 850 l 414 850 q 269 801 324 850 q 215 663 215 751 z "},"Э":{"ha":1168,"x_min":42,"x_max":1126,"o":"m 1126 485 q 1089 267 1126 363 q 980 105 1051 171 q 806 4 908 39 q 572 -31 703 -31 q 219 52 357 -31 q 42 310 82 135 l 189 310 q 306 153 213 214 q 572 92 400 92 q 737 118 664 92 q 862 190 810 144 q 943 299 914 236 q 978 436 972 363 l 379 436 l 381 558 l 976 558 q 942 697 971 635 q 861 802 913 758 q 738 870 810 846 q 572 894 665 894 q 421 875 486 894 q 309 822 356 856 q 234 741 263 788 q 192 640 206 694 l 44 640 q 211 921 72 825 q 572 1017 350 1017 q 806 983 703 1017 q 980 883 908 949 q 1089 724 1051 818 q 1126 510 1126 631 l 1126 485 z "},"Є":{"ha":1168,"x_min":42,"x_max":1126,"o":"m 1126 310 q 949 52 1086 135 q 596 -31 811 -31 q 363 4 465 -31 q 188 105 260 39 q 79 267 117 171 q 42 485 42 363 l 42 510 q 79 724 42 631 q 188 883 117 818 q 363 983 260 949 q 596 1017 465 1017 q 957 921 818 1017 q 1124 640 1096 825 l 976 640 q 934 741 963 694 q 859 822 906 788 q 747 875 813 856 q 596 894 682 894 q 431 870 503 894 q 307 802 358 846 q 226 697 256 758 q 192 558 197 635 l 788 558 l 789 436 l 190 436 q 225 299 196 363 q 306 190 254 236 q 431 118 358 144 q 596 92 504 92 q 749 108 682 92 q 863 153 815 124 q 938 222 910 182 q 979 310 967 263 l 1126 310 z "},"Ґ":{"ha":988,"x_min":111,"x_max":960,"o":"m 247 850 l 247 0 l 111 0 l 111 972 l 824 972 l 824 1042 l 960 1042 l 960 696 l 824 696 l 824 850 l 247 850 z "},"Ё":{"ha":1081,"x_min":97,"x_max":1025,"o":"m 389 1300 l 389 1133 l 221 1133 l 221 1300 l 389 1300 m 894 1300 l 894 1133 l 726 1133 l 726 1300 l 894 1300 m 1025 122 l 1025 0 l 97 0 l 97 972 l 979 972 l 979 850 l 233 850 l 233 588 l 839 588 l 839 465 l 233 465 l 233 122 l 1025 122 z "},"P":{"ha":1121,"x_min":97,"x_max":1079,"o":"m 233 356 l 233 0 l 97 0 l 97 972 l 742 972 q 881 952 818 972 q 987 892 943 932 q 1055 793 1031 853 q 1079 654 1079 733 q 1051 521 1076 578 q 983 428 1026 464 q 878 374 939 392 q 742 356 817 356 l 233 356 m 233 478 l 736 478 q 881 525 826 478 q 935 663 935 572 q 881 801 935 751 q 736 850 826 850 l 233 850 l 233 478 z "},"U":{"ha":1117,"x_min":83,"x_max":1033,"o":"m 1033 392 q 907 73 1025 174 q 558 -28 789 -28 q 209 74 328 -28 q 83 392 90 176 l 83 972 l 219 972 l 219 456 q 231 310 219 376 q 277 195 242 243 q 378 121 313 147 q 557 94 444 94 q 737 120 669 94 q 840 193 804 146 q 886 306 875 240 q 897 453 897 372 l 897 972 l 1033 972 l 1033 392 z "},"R":{"ha":1168,"x_min":97,"x_max":1099,"o":"m 233 356 l 233 0 l 97 0 l 97 972 l 746 972 q 885 952 822 972 q 991 892 947 932 q 1059 793 1035 853 q 1083 654 1083 733 q 1027 469 1079 538 q 883 374 975 401 l 1099 1 l 939 1 l 738 356 l 233 356 m 233 478 l 700 478 q 880 525 821 478 q 939 663 939 572 q 883 801 939 751 q 715 850 828 850 l 233 850 l 233 478 z "},"M":{"ha":1426,"x_min":56,"x_max":1385,"o":"m 407 426 l 211 0 l 56 0 l 267 433 l 174 972 l 589 972 l 754 92 l 933 972 l 1176 972 l 1385 0 l 1244 0 l 1053 894 l 876 0 l 632 0 l 472 853 l 333 853 l 407 426 z "},"ᒟ":{"ha":924,"x_min":56,"x_max":868,"o":"m 868 122 l 868 0 l 56 0 l 56 122 l 392 122 l 392 804 q 332 760 361 782 q 273 717 303 739 q 211 672 243 694 q 140 621 179 649 l 78 710 q 190 786 140 753 q 289 853 239 819 l 56 853 l 56 972 l 460 972 q 486 991 474 982 q 510 1008 499 1000 l 657 1115 q 697 1144 676 1129 q 742 1176 718 1160 l 803 1089 q 740 1046 769 1065 q 682 1007 710 1026 l 631 972 l 868 972 l 868 853 l 529 853 l 529 122 l 868 122 z "},"Х":{"ha":1310,"x_min":42,"x_max":1268,"o":"m 500 464 l 204 0 l 42 0 l 381 528 l 100 972 l 263 972 l 506 586 l 792 586 l 1072 972 l 1242 972 l 922 538 l 1268 0 l 1103 0 l 810 464 l 500 464 z "},"Y":{"ha":1165,"x_min":42,"x_max":1124,"o":"m 1003 122 l 1003 0 l 156 0 l 156 122 l 510 122 l 510 288 l 42 972 l 207 972 l 582 419 l 960 972 l 1124 972 l 646 282 l 646 122 l 1003 122 z "},"X":{"ha":1268,"x_min":21,"x_max":1247,"o":"m 479 464 l 183 0 l 21 0 l 360 528 l 79 972 l 242 972 l 485 586 l 771 586 l 1051 972 l 1221 972 l 901 538 l 1247 0 l 1082 0 l 789 464 l 479 464 z "},"Q":{"ha":1231,"x_min":42,"x_max":1175,"o":"m 1088 183 q 1128 63 1115 121 q 1144 -31 1140 6 l 1021 -31 q 1013 7 1017 -12 q 1003 44 1008 24 q 992 82 999 64 q 820 -3 917 25 q 608 -31 724 -31 q 381 -1 483 -31 q 205 91 279 29 q 88 247 131 153 q 42 471 46 342 l 42 496 q 88 726 46 628 q 205 888 131 824 q 381 985 279 953 q 608 1017 483 1017 q 838 983 733 1017 q 1017 885 942 950 q 1133 722 1092 819 q 1175 496 1175 625 q 1152 323 1175 400 q 1088 183 1129 246 m 186 475 q 245 249 186 339 q 410 117 304 158 q 406 123 407 119 q 403 131 406 126 q 387 251 376 190 q 438 359 397 311 q 544 437 478 407 q 694 467 611 467 q 878 424 803 465 q 1004 321 953 383 q 1028 475 1028 392 q 999 648 1028 571 q 915 780 969 725 q 782 865 860 835 q 608 894 704 894 q 434 866 513 894 q 301 784 356 838 q 216 653 246 731 q 186 475 186 575 m 514 186 q 533 136 518 157 q 571 103 547 115 q 624 88 594 92 q 689 86 654 83 q 935 203 846 106 l 936 206 q 881 281 914 247 q 808 332 853 308 q 699 356 763 356 q 624 343 660 356 q 563 308 589 331 q 522 255 536 286 q 514 186 508 224 z "},"p":{"ha":1047,"x_min":97,"x_max":997,"o":"m 560 -28 q 375 1 461 -28 q 226 86 289 29 l 226 -235 l 97 -235 l 97 736 l 226 736 l 219 646 q 367 739 282 706 q 554 772 453 772 q 729 749 649 772 q 869 676 810 725 q 962 552 928 626 q 997 376 996 478 q 965 196 997 272 q 874 69 932 119 q 735 -4 815 19 q 560 -28 654 -28 m 228 372 q 253 243 229 296 q 321 157 278 190 q 423 108 364 124 q 551 93 482 93 q 678 108 621 93 q 777 157 736 124 q 841 243 818 190 q 865 372 864 296 q 841 502 864 449 q 778 590 818 556 q 681 639 738 624 q 554 654 624 654 q 424 638 483 654 q 322 588 365 622 q 253 501 278 554 q 228 372 229 447 z "},"o":{"ha":972,"x_min":42,"x_max":929,"o":"m 929 369 q 895 192 928 268 q 803 67 863 117 q 663 -8 744 17 q 483 -33 582 -33 q 303 -9 383 -33 q 165 65 222 15 q 75 192 107 115 q 42 371 43 268 q 74 551 42 474 q 163 678 106 628 q 302 755 221 729 q 482 781 383 781 q 664 756 582 781 q 805 680 746 731 q 897 551 864 629 q 929 369 929 474 m 174 374 q 256 153 176 224 q 483 83 336 83 q 713 153 631 83 q 797 374 794 222 q 711 595 794 525 q 481 665 628 665 q 255 595 333 665 q 174 374 176 525 z "},"q":{"ha":1046,"x_min":49,"x_max":949,"o":"m 949 -236 l 819 -237 l 819 83 q 678 0 761 29 q 488 -28 596 -29 q 163 69 276 -28 q 49 376 49 167 q 82 552 50 478 q 172 675 114 626 q 310 748 229 724 q 492 772 392 772 q 685 738 600 772 q 828 643 769 704 l 819 736 l 949 736 l 949 -236 m 181 372 q 201 237 182 292 q 259 150 221 182 q 356 104 297 118 q 494 90 414 90 q 635 106 575 90 q 735 156 694 122 q 797 242 776 189 q 818 372 817 296 q 794 501 817 447 q 729 588 771 554 q 627 638 688 622 q 492 654 567 654 q 359 640 417 654 q 263 594 301 626 q 203 508 224 563 q 181 372 182 454 z "},"b":{"ha":1039,"x_min":83,"x_max":983,"o":"m 983 360 q 951 184 982 258 q 864 61 921 110 q 727 -11 807 13 q 547 -35 647 -35 q 351 -2 439 -36 q 204 94 264 32 l 213 0 l 83 0 l 83 972 l 213 972 l 213 661 q 533 765 325 765 q 722 741 639 765 q 864 667 806 717 q 953 540 922 617 q 983 360 983 464 m 214 364 q 303 150 217 214 q 540 86 389 86 q 769 149 690 86 q 851 364 849 213 q 774 583 849 517 q 538 650 699 650 q 297 583 376 650 q 214 364 217 517 z "},"d":{"ha":1039,"x_min":56,"x_max":956,"o":"m 835 97 q 689 -1 776 35 q 492 -35 601 -36 q 312 -11 392 -35 q 175 61 232 13 q 88 184 118 110 q 56 360 57 258 q 85 540 56 464 q 173 667 115 617 q 313 741 231 717 q 501 765 396 765 q 826 657 714 765 l 826 972 l 956 972 l 956 0 l 826 0 l 835 97 m 188 364 q 269 149 190 213 q 499 86 349 86 q 634 101 574 86 q 736 150 694 117 q 801 236 778 183 q 825 364 824 289 q 742 581 822 517 q 501 647 663 646 q 265 582 340 647 q 188 364 190 517 z "},"n":{"ha":988,"x_min":97,"x_max":904,"o":"m 904 1 l 776 0 l 776 400 q 773 481 776 436 q 747 564 769 525 q 679 630 725 603 q 547 657 633 657 q 419 642 478 657 q 319 592 361 628 q 252 492 276 556 q 226 329 228 428 l 226 1 l 97 1 l 97 738 l 226 736 l 213 646 q 358 744 271 713 q 553 775 444 775 q 697 754 632 775 q 808 692 761 733 q 879 589 854 651 q 904 443 904 526 l 904 1 z "},"r":{"ha":729,"x_min":97,"x_max":715,"o":"m 547 646 q 419 630 478 646 q 318 581 361 614 q 251 494 275 547 q 226 364 228 440 l 225 0 l 97 0 l 97 736 l 226 736 l 210 625 q 353 726 267 692 q 547 760 439 760 l 715 760 l 715 646 l 547 646 z "},"l":{"ha":381,"x_min":125,"x_max":256,"o":"m 256 974 l 256 0 l 125 0 l 125 972 l 256 974 z "},"m":{"ha":1458,"x_min":97,"x_max":1361,"o":"m 1054 775 q 1174 758 1118 775 q 1272 709 1231 742 q 1338 626 1314 676 q 1361 510 1361 576 l 1361 0 l 1232 1 l 1232 456 q 1189 606 1232 553 q 1036 660 1146 660 q 866 594 929 660 q 794 417 803 529 l 793 0 l 664 1 l 664 454 q 654 540 664 503 q 622 605 644 578 q 561 646 599 632 q 468 660 524 660 q 292 587 356 660 q 226 392 229 514 l 226 0 l 97 1 l 97 736 l 226 736 l 213 646 q 329 740 258 706 q 488 775 400 775 q 658 738 583 774 q 769 629 733 703 q 888 735 814 696 q 1054 775 961 775 z "},"c":{"ha":956,"x_min":56,"x_max":907,"o":"m 906 242 q 860 120 896 172 q 770 33 825 68 q 644 -19 715 -1 q 492 -36 574 -36 q 312 -12 392 -36 q 175 63 232 13 q 88 189 118 113 q 56 368 57 265 q 86 548 56 471 q 173 676 117 625 q 310 752 229 726 q 489 778 390 778 q 642 760 571 778 q 769 707 714 742 q 861 620 825 672 q 907 499 897 568 l 768 499 q 735 569 760 539 q 674 621 711 600 q 590 653 638 642 q 488 664 542 664 q 265 592 340 663 q 188 369 190 521 q 267 149 190 219 q 492 78 344 78 q 676 118 601 78 q 768 242 751 158 l 906 242 z "},"e":{"ha":1000,"x_min":56,"x_max":951,"o":"m 933 210 q 872 104 913 150 q 776 28 832 58 q 650 -18 719 -3 q 504 -33 581 -33 q 322 -9 404 -33 q 181 65 240 15 q 90 192 122 115 q 56 371 57 268 q 90 551 56 474 q 184 678 124 628 q 328 755 244 729 q 510 781 411 781 q 709 749 624 781 q 849 658 794 717 q 928 515 904 599 q 940 331 951 432 l 190 331 q 287 143 206 204 q 504 82 368 82 q 681 113 604 82 q 793 211 757 144 l 933 210 m 513 665 q 299 610 385 665 q 194 442 214 556 l 811 442 q 785 536 810 494 q 721 606 761 578 q 626 650 681 635 q 513 665 572 665 z "},"І":{"ha":1035,"x_min":69,"x_max":965,"o":"m 965 122 l 965 0 l 69 0 l 69 122 l 446 122 l 446 850 l 69 850 l 69 972 l 965 972 l 965 850 l 582 850 l 582 122 l 965 122 z "},"Ї":{"ha":1007,"x_min":56,"x_max":951,"o":"m 336 1300 l 336 1133 l 168 1133 l 168 1300 l 336 1300 m 842 1300 l 842 1133 l 674 1133 l 674 1300 l 842 1300 m 951 122 l 951 0 l 56 0 l 56 122 l 432 122 l 432 850 l 56 850 l 56 972 l 951 972 l 951 850 l 568 850 l 568 122 l 951 122 z "},"g":{"ha":1079,"x_min":56,"x_max":1024,"o":"m 1007 63 q 972 -85 1011 -25 q 866 -181 932 -144 q 717 -235 800 -218 q 551 -251 635 -251 l 514 -251 q 324 -231 408 -251 q 179 -171 239 -210 q 88 -75 119 -132 q 56 56 56 -18 l 190 56 q 209 -18 190 17 q 267 -79 228 -53 q 366 -122 306 -106 q 511 -137 426 -137 l 542 -137 q 574 -136 547 -137 q 639 -129 601 -135 q 719 -112 676 -124 q 797 -78 761 -100 q 855 -26 832 -57 q 878 51 878 6 q 860 118 878 93 q 821 156 842 143 q 690 99 765 118 q 525 81 615 81 q 349 101 429 81 q 212 163 269 121 q 122 269 154 204 q 88 422 89 333 q 120 575 88 510 q 210 683 153 640 q 348 747 268 726 q 522 768 428 768 q 640 760 585 768 q 742 733 694 751 l 1024 733 l 1024 596 l 896 619 q 938 531 924 581 q 953 421 953 482 q 899 231 950 306 q 971 168 938 208 q 1007 63 1004 128 m 218 424 q 241 316 219 360 q 302 245 263 272 q 398 206 342 218 q 525 194 454 194 q 649 206 594 194 q 743 244 704 218 q 802 315 782 271 q 824 424 822 360 q 803 533 824 489 q 742 604 782 576 q 647 644 703 632 q 521 656 592 656 q 395 644 451 656 q 299 605 339 632 q 239 533 260 578 q 218 424 218 489 z "},"v":{"ha":918,"x_min":21,"x_max":897,"o":"m 897 736 l 560 0 l 358 0 l 21 736 l 165 736 l 460 96 l 753 736 l 897 736 z "},"u":{"ha":960,"x_min":56,"x_max":863,"o":"m 747 88 q 603 -8 689 21 q 408 -37 517 -37 q 264 -17 329 -37 q 152 44 199 3 q 81 149 106 86 q 56 294 56 211 l 56 736 l 185 736 l 185 338 q 188 258 185 303 q 213 174 192 213 q 281 108 235 135 q 414 81 328 81 q 542 95 483 81 q 642 146 600 110 q 709 245 685 182 q 735 407 733 308 l 735 736 l 863 736 l 863 0 l 735 0 l 747 88 z "},"о":{"ha":958,"x_min":35,"x_max":922,"o":"m 922 365 q 888 188 921 264 q 797 63 856 113 q 656 -12 738 13 q 476 -37 575 -37 q 296 -13 376 -37 q 158 61 215 11 q 68 188 100 111 q 35 367 36 264 q 67 547 35 469 q 156 674 99 624 q 295 751 214 725 q 475 776 376 776 q 657 751 575 776 q 798 676 739 726 q 890 547 857 625 q 922 365 922 469 m 167 369 q 249 149 169 219 q 476 79 329 79 q 706 149 624 79 q 790 369 788 218 q 704 591 788 521 q 474 661 621 661 q 248 591 326 661 q 167 369 169 521 z "},"в":{"ha":1003,"x_min":97,"x_max":940,"o":"m 940 201 q 878 49 940 97 q 718 0 815 0 l 97 0 l 97 736 l 671 736 q 765 724 722 736 q 839 685 808 711 q 887 619 869 660 q 904 525 904 579 q 881 428 903 463 q 819 376 860 393 q 906 317 872 361 q 940 201 939 272 m 226 415 l 636 414 q 736 435 699 415 q 775 515 774 454 q 763 576 775 554 q 729 608 750 597 q 680 620 708 618 q 619 622 651 622 l 226 622 l 226 415 m 226 114 l 675 114 q 778 133 746 114 q 811 211 810 153 q 778 285 810 268 q 678 303 747 303 l 226 303 l 226 114 z "},"е":{"ha":1026,"x_min":69,"x_max":965,"o":"m 947 210 q 886 104 926 150 q 790 28 846 58 q 664 -18 733 -3 q 518 -33 594 -33 q 336 -9 418 -33 q 195 65 254 15 q 103 192 136 115 q 69 371 71 268 q 103 551 69 474 q 198 678 138 628 q 342 755 258 729 q 524 781 425 781 q 723 749 638 781 q 863 658 808 717 q 942 515 918 599 q 954 331 965 432 l 204 331 q 301 143 219 204 q 518 82 382 82 q 694 113 618 82 q 807 211 771 144 l 947 210 m 526 665 q 313 610 399 665 q 208 442 228 556 l 825 442 q 799 536 824 494 q 735 606 775 578 q 640 650 694 635 q 526 665 586 665 z "},"р":{"ha":1053,"x_min":97,"x_max":997,"o":"m 558 -28 q 374 0 460 -29 q 226 86 289 29 l 226 -237 l 97 -236 l 97 736 l 226 736 l 219 646 q 367 739 282 706 q 554 772 453 772 q 729 748 649 772 q 869 675 810 724 q 962 552 928 626 q 997 376 996 478 q 964 196 997 272 q 872 69 931 119 q 733 -4 814 19 q 558 -28 653 -28 m 228 372 q 253 243 229 296 q 320 157 278 190 q 422 108 363 124 q 551 93 481 93 q 678 108 621 93 q 777 157 736 124 q 841 243 818 190 q 865 372 864 296 q 841 502 864 449 q 778 590 818 556 q 681 639 738 624 q 554 654 624 654 q 424 638 483 654 q 322 588 365 622 q 253 501 278 554 q 228 372 229 447 z "},"с":{"ha":956,"x_min":56,"x_max":907,"o":"m 906 242 q 860 120 896 172 q 770 33 825 68 q 644 -19 715 -1 q 492 -36 574 -36 q 312 -12 392 -36 q 175 63 232 13 q 88 189 118 113 q 56 368 57 265 q 86 548 56 471 q 173 676 117 625 q 310 752 229 726 q 489 778 390 778 q 642 760 571 778 q 769 707 714 742 q 861 620 825 672 q 907 499 897 568 l 768 499 q 735 569 760 539 q 674 621 711 600 q 590 653 638 642 q 488 664 542 664 q 265 592 340 663 q 188 369 190 521 q 267 149 190 219 q 492 78 344 78 q 676 118 601 78 q 768 242 751 158 l 906 242 z "},"ь":{"ha":899,"x_min":97,"x_max":857,"o":"m 857 254 q 826 117 857 167 q 742 41 794 67 q 623 8 690 15 q 485 0 556 0 l 97 0 l 97 736 l 226 736 l 226 493 l 425 493 q 581 491 504 493 q 720 468 658 489 q 819 398 782 447 q 857 254 857 349 m 226 114 l 428 114 q 543 116 489 114 q 638 131 597 118 q 703 172 679 143 q 728 254 728 200 q 706 325 728 300 q 649 363 683 350 q 571 377 614 375 q 486 379 528 379 l 226 379 l 226 114 z "},"г":{"ha":792,"x_min":97,"x_max":764,"o":"m 228 621 l 228 0 l 97 0 l 97 736 l 764 736 l 764 621 l 228 621 z "},"т":{"ha":867,"x_min":21,"x_max":846,"o":"m 500 618 l 500 0 l 369 0 l 369 618 l 21 618 l 21 736 l 846 736 l 846 618 l 500 618 z "},"н":{"ha":990,"x_min":97,"x_max":893,"o":"m 226 300 l 226 0 l 97 0 l 97 736 l 226 736 l 226 418 l 764 418 l 764 735 l 893 736 l 893 0 l 765 0 l 765 300 l 226 300 z "},"п":{"ha":939,"x_min":97,"x_max":842,"o":"m 226 618 l 226 0 l 97 0 l 97 736 l 842 736 l 842 0 l 714 0 l 714 618 l 226 618 z "},"з":{"ha":990,"x_min":64,"x_max":914,"o":"m 914 206 q 872 72 914 121 q 768 -1 831 24 q 633 -31 706 -25 q 500 -37 561 -37 q 331 -26 408 -39 q 197 19 254 -12 q 106 103 140 50 q 64 236 71 157 l 203 236 q 231 156 206 186 q 297 108 257 125 q 388 84 338 90 q 490 78 439 78 q 707 108 631 78 q 783 201 783 138 q 753 282 783 256 q 643 308 722 308 l 283 308 l 283 419 l 576 419 q 642 424 611 419 q 695 441 672 428 q 732 478 718 454 q 746 540 746 501 q 513 663 746 660 q 419 658 468 663 q 326 639 369 654 q 250 592 282 624 q 208 507 218 561 l 75 506 q 130 649 85 596 q 239 731 175 703 q 376 769 303 760 q 515 778 450 778 q 645 766 581 778 q 761 728 710 754 q 844 659 813 701 q 876 554 876 617 q 857 460 876 494 q 814 410 838 426 q 750 383 785 389 q 832 361 796 381 q 889 308 864 344 q 914 206 914 272 z "},"і":{"ha":801,"x_min":28,"x_max":760,"o":"m 531 1042 l 531 882 l 357 882 l 357 1042 l 531 1042 m 760 114 l 760 0 l 28 0 l 28 114 l 400 114 l 400 622 l 135 622 l 135 738 l 531 738 l 531 114 l 760 114 z "},"ї":{"ha":797,"x_min":69,"x_max":742,"o":"m 633 1040 l 633 882 l 460 883 l 461 1040 l 633 1040 m 278 1040 l 278 882 l 106 883 l 106 1040 l 278 1040 m 742 114 l 742 0 l 69 0 l 69 114 l 374 114 l 374 624 l 167 624 l 167 738 l 504 738 l 504 114 l 742 114 z "},"ё":{"ha":985,"x_min":56,"x_max":944,"o":"m 803 1040 l 803 882 l 631 883 l 631 1040 l 803 1040 m 392 1040 l 392 882 l 219 883 l 219 1040 l 392 1040 m 932 229 q 884 123 921 171 q 794 41 847 75 q 679 -12 742 7 q 556 -32 617 -31 l 475 -32 q 322 -7 397 -31 q 189 66 247 17 q 94 192 131 115 q 57 376 57 268 q 88 550 56 475 q 177 675 119 625 q 313 750 235 725 q 479 775 390 775 l 546 775 q 717 743 642 775 q 842 657 792 711 q 919 533 893 603 q 942 386 944 463 l 940 339 l 196 339 q 226 219 196 268 q 301 140 256 171 q 398 97 346 110 q 494 83 450 83 l 550 83 q 618 92 582 83 q 688 117 654 100 q 749 162 722 135 q 789 228 776 189 l 932 229 m 485 660 q 398 649 446 660 q 307 614 350 639 q 233 547 264 589 q 197 443 203 506 l 801 443 q 773 536 796 496 q 715 603 750 576 q 637 645 681 631 q 546 660 593 660 l 485 660 z "},"є":{"ha":990,"x_min":69,"x_max":921,"o":"m 919 244 q 778 40 888 106 q 504 -26 669 -26 q 324 -3 404 -26 q 188 69 244 21 q 101 193 132 118 q 69 371 71 268 q 100 549 69 474 q 187 675 131 625 q 324 749 243 725 q 503 774 404 774 q 778 708 667 774 q 921 501 890 642 l 781 501 q 683 623 756 585 q 501 661 611 661 q 294 604 368 660 q 206 424 221 549 l 628 424 l 628 310 l 207 310 q 299 140 225 193 q 504 86 374 86 q 685 124 615 86 q 782 244 754 163 l 919 244 z "},"э":{"ha":963,"x_min":56,"x_max":907,"o":"m 907 371 q 875 192 906 268 q 788 65 844 115 q 652 -9 732 15 q 472 -33 572 -33 q 198 36 307 -33 q 57 244 89 106 l 194 244 q 472 79 250 79 q 769 310 735 79 l 349 310 l 349 424 l 772 424 q 683 609 757 550 q 475 668 608 668 q 293 626 365 668 q 196 501 221 585 l 56 501 q 198 712 86 643 q 474 781 310 781 q 653 755 572 781 q 790 678 733 729 q 876 551 846 628 q 907 371 907 474 z "},"ц":{"ha":971,"x_min":83,"x_max":950,"o":"m 950 -162 l 819 -164 l 819 0 l 83 0 l 83 736 l 214 736 l 214 118 l 692 118 l 692 736 l 821 736 l 821 117 l 949 117 l 950 -162 z "},"ъ":{"ha":946,"x_min":7,"x_max":904,"o":"m 904 254 q 873 117 904 167 q 790 41 842 67 q 671 8 738 15 q 532 0 604 1 l 144 0 l 144 622 l 7 622 l 7 736 l 274 736 l 274 493 l 472 493 q 628 491 551 493 q 767 468 706 489 q 867 398 829 447 q 904 254 904 349 m 274 114 l 475 114 q 589 116 535 114 q 683 131 643 118 q 748 172 724 143 q 772 254 772 200 q 751 325 772 300 q 694 363 729 350 q 617 377 660 375 q 533 379 575 379 l 274 379 l 274 114 z "},"ш":{"ha":1256,"x_min":97,"x_max":1158,"o":"m 1158 736 l 1158 0 l 97 0 l 97 736 l 226 736 l 226 118 l 564 118 l 564 736 l 692 736 l 692 118 l 1029 118 l 1029 736 l 1158 736 z "},"щ":{"ha":1307,"x_min":97,"x_max":1286,"o":"m 1286 117 l 1286 -164 l 1158 -164 l 1158 0 l 97 0 l 97 736 l 226 736 l 226 118 l 563 118 l 563 736 l 692 736 l 692 118 l 1029 118 l 1029 736 l 1158 736 l 1158 117 l 1286 117 z "},"ы":{"ha":1117,"x_min":97,"x_max":1019,"o":"m 1019 736 l 1019 0 l 97 0 l 97 736 l 226 736 l 226 493 l 333 493 q 490 491 413 493 q 628 468 567 489 q 728 398 690 447 q 765 254 765 349 q 756 171 765 206 q 728 108 746 136 l 890 108 l 890 736 l 1019 736 m 336 108 q 450 110 396 108 q 544 124 504 111 q 609 166 585 136 q 633 251 633 196 q 612 326 633 300 q 556 363 590 351 q 478 377 521 375 q 394 379 436 379 l 226 379 l 226 108 l 336 108 z "},"и":{"ha":1001,"x_min":97,"x_max":904,"o":"m 775 636 l 308 0 l 97 0 l 97 736 l 226 736 l 226 106 l 693 736 l 904 736 l 904 0 l 775 0 l 775 636 z "},"й":{"ha":1001,"x_min":97,"x_max":904,"o":"m 810 1129 q 726 937 810 1003 q 494 871 642 871 q 263 934 349 871 q 178 1129 178 997 l 294 1129 q 313 1055 294 1086 q 360 1005 331 1024 q 424 977 389 986 q 494 968 460 968 q 565 977 529 968 q 628 1005 600 986 q 675 1055 657 1024 q 693 1129 693 1086 l 810 1129 m 775 636 l 308 0 l 97 0 l 97 736 l 226 736 l 226 106 l 693 736 l 904 736 l 904 0 l 775 0 l 775 636 z "},"ґ":{"ha":808,"x_min":97,"x_max":767,"o":"m 228 622 l 228 0 l 97 0 l 97 736 l 638 736 l 638 858 l 767 858 l 767 622 l 228 622 z "},"к":{"ha":978,"x_min":97,"x_max":950,"o":"m 226 300 l 226 0 l 97 0 l 97 736 l 226 736 l 226 414 l 543 414 l 750 736 l 901 736 l 661 369 l 950 0 l 792 0 l 556 300 l 226 300 z "},"х":{"ha":1001,"x_min":28,"x_max":974,"o":"m 392 304 l 192 0 l 28 0 l 283 372 l 58 736 l 224 736 l 418 419 l 585 419 l 778 736 l 943 736 l 718 371 l 974 0 l 811 0 l 611 304 l 392 304 z "},"ж":{"ha":1268,"x_min":14,"x_max":1254,"o":"m 417 314 l 181 0 l 14 0 l 307 386 l 310 386 l 44 736 l 200 736 l 435 428 l 574 428 l 574 736 l 703 736 l 703 428 l 835 428 l 1068 736 l 1224 736 l 960 386 l 961 386 l 1254 0 l 1085 0 l 849 314 l 703 314 l 703 0 l 574 0 l 574 314 l 417 314 z "},"л":{"ha":988,"x_min":42,"x_max":890,"o":"m 328 267 q 303 122 322 175 q 251 40 285 68 q 165 4 217 11 q 42 0 114 -3 l 42 117 q 108 117 81 118 q 153 128 135 117 q 181 171 171 140 q 197 265 192 201 l 232 736 l 890 736 l 890 0 l 761 0 l 761 621 l 351 621 l 328 267 z "},"м":{"ha":1147,"x_min":97,"x_max":1050,"o":"m 226 640 l 226 0 l 97 0 l 97 736 l 329 736 l 572 104 l 815 736 l 1050 736 l 1050 0 l 921 0 l 921 647 l 669 0 l 475 0 l 226 640 z "},"x":{"ha":1024,"x_min":14,"x_max":1010,"o":"m 422 318 l 178 0 l 14 0 l 322 385 l 44 736 l 208 736 l 447 432 l 581 432 l 815 736 l 976 736 l 701 386 l 1010 0 l 846 0 l 592 318 l 422 318 z "},"h":{"ha":961,"x_min":83,"x_max":892,"o":"m 533 660 q 406 642 464 660 q 304 588 347 624 q 238 497 261 551 q 213 365 214 442 l 213 0 l 83 0 l 83 972 l 213 972 l 213 649 q 354 742 271 710 q 539 774 438 774 q 683 753 618 774 q 795 691 749 732 q 867 588 842 650 q 892 443 892 526 l 892 0 l 763 0 l 763 399 q 753 499 763 451 q 717 582 743 546 q 647 639 690 618 q 533 660 603 660 z "},"k":{"ha":938,"x_min":83,"x_max":924,"o":"m 213 0 l 83 -1 l 83 972 l 213 972 l 213 314 l 686 736 l 874 736 l 543 444 l 924 0 l 753 0 l 446 358 l 213 151 l 213 0 z "},"i":{"ha":788,"x_min":28,"x_max":760,"o":"m 531 1042 l 531 882 l 357 882 l 357 1042 l 531 1042 m 760 114 l 760 0 l 28 0 l 28 114 l 400 114 l 400 622 l 135 622 l 135 738 l 531 738 l 531 114 l 760 114 z "},"j":{"ha":563,"x_min":56,"x_max":521,"o":"m 379 1040 l 379 883 l 207 883 l 207 1040 l 379 1040 m 361 215 q 353 7 361 90 q 317 -125 346 -76 q 230 -192 288 -174 q 72 -206 172 -210 l 71 -86 q 162 -81 129 -86 q 210 -46 194 -75 q 228 44 225 -17 q 232 215 232 106 l 232 622 l 56 622 l 56 736 l 521 736 l 521 622 l 361 622 l 361 215 z "},"t":{"ha":592,"x_min":56,"x_max":536,"o":"m 478 3 q 315 19 374 1 q 228 84 257 38 q 194 213 200 131 q 188 424 188 296 l 188 621 l 56 621 l 56 735 l 189 735 l 189 897 l 318 897 l 294 735 l 536 735 l 536 621 l 318 621 l 317 424 q 320 253 317 314 q 340 163 324 192 q 388 128 356 133 q 479 122 421 122 l 478 3 z "},"f":{"ha":647,"x_min":56,"x_max":647,"o":"m 300 550 l 301 0 l 172 0 l 172 550 q 173 587 172 569 q 174 621 174 604 l 56 621 l 56 735 l 178 735 q 199 849 183 803 q 245 922 214 894 q 328 960 276 949 q 458 972 379 972 l 647 972 l 647 858 l 460 858 q 392 853 419 858 q 346 835 364 849 q 318 798 328 822 q 304 736 308 774 l 519 736 l 518 607 l 300 639 l 300 550 z "},"y":{"ha":961,"x_min":28,"x_max":947,"o":"m 608 61 q 507 -103 553 -47 q 418 -181 461 -158 q 329 -205 375 -204 q 225 -206 283 -206 l 213 -206 l 213 -87 q 299 -85 264 -87 q 360 -67 333 -82 q 414 -18 388 -51 q 475 76 440 15 l 482 90 l 393 90 l 28 735 l 174 735 q 331 457 260 582 q 390 352 361 404 q 444 256 419 300 q 486 183 469 213 q 508 143 503 153 l 804 735 l 947 735 l 608 61 z "},"w":{"ha":1254,"x_min":56,"x_max":1200,"o":"m 588 421 l 489 0 l 260 0 l 56 736 l 193 736 l 374 67 l 529 736 l 729 736 l 882 68 l 1063 736 l 1200 736 l 996 0 l 767 0 l 668 421 l 628 646 l 588 421 z "},"z":{"ha":921,"x_min":69,"x_max":851,"o":"m 851 117 l 851 0 l 69 0 l 69 199 l 713 618 l 82 618 l 82 735 l 846 735 l 846 554 l 178 117 l 851 117 z "},"я":{"ha":942,"x_min":35,"x_max":844,"o":"m 375 271 l 193 0 l 35 0 l 239 283 q 124 356 165 303 q 81 503 82 410 q 99 606 81 563 q 152 679 118 650 q 233 722 186 708 q 338 736 281 736 l 844 736 l 844 0 l 715 0 l 715 271 l 375 271 m 211 501 q 244 413 211 442 q 338 383 276 383 l 715 383 l 715 622 l 338 622 q 244 593 278 622 q 211 501 211 564 z "},"д":{"ha":1046,"x_min":42,"x_max":1004,"o":"m 171 0 l 171 -162 l 42 -162 l 42 114 l 54 114 q 125 133 96 115 q 174 189 154 150 q 204 291 193 228 q 222 446 215 354 l 243 736 l 882 736 l 882 114 l 1004 114 l 1003 -162 l 874 -162 l 874 -1 l 171 0 m 347 401 q 278 114 332 211 l 753 114 l 753 622 l 364 622 l 347 401 z "},"ч":{"ha":893,"x_min":28,"x_max":796,"o":"m 794 736 l 796 0 l 667 0 l 665 246 l 371 246 q 222 261 286 246 q 114 315 157 276 q 49 421 71 354 q 28 589 28 488 l 28 736 l 157 736 l 157 593 q 174 463 157 510 q 223 394 190 417 q 303 368 256 372 q 411 364 350 364 l 665 364 l 665 736 l 794 736 z "},"ю":{"ha":1289,"x_min":97,"x_max":1219,"o":"m 1219 369 q 1188 192 1218 268 q 1101 67 1157 117 q 965 -8 1044 17 q 788 -33 886 -33 q 494 49 606 -33 q 364 304 383 132 l 226 304 l 226 0 l 97 0 l 97 736 l 226 736 l 226 418 l 361 418 q 487 690 375 600 q 785 781 599 781 q 965 756 885 781 q 1101 680 1044 731 q 1189 551 1158 629 q 1219 369 1219 474 m 492 372 q 788 81 496 81 q 1010 152 935 81 q 1088 372 1085 224 q 1008 594 1085 522 q 783 667 931 667 q 565 594 636 665 q 492 372 494 522 z "},"Ч":{"ha":1028,"x_min":42,"x_max":931,"o":"m 931 972 l 931 0 l 794 0 l 794 354 l 382 354 q 222 384 286 354 q 117 463 157 414 q 60 572 78 511 q 42 697 42 633 l 42 972 l 178 972 l 178 697 q 189 615 178 656 q 225 544 200 575 q 290 495 250 514 q 388 476 329 476 l 794 476 l 794 972 l 931 972 z "},"у":{"ha":961,"x_min":14,"x_max":933,"o":"m 594 61 q 493 -103 539 -47 q 404 -181 447 -158 q 315 -205 361 -204 q 211 -206 269 -206 l 199 -206 l 199 -87 q 285 -85 250 -87 q 347 -67 319 -82 q 400 -18 374 -51 q 461 76 426 15 l 468 90 l 379 90 l 14 735 l 160 735 q 317 457 246 582 q 376 352 347 404 q 431 256 406 300 q 472 183 456 213 q 494 143 489 153 l 790 735 l 933 735 l 594 61 z "},"ј":{"ha":533,"x_min":39,"x_max":504,"o":"m 363 1040 l 363 883 l 190 883 l 190 1040 l 363 1040 m 344 215 q 337 7 344 90 q 300 -125 329 -76 q 213 -192 271 -174 q 56 -206 156 -210 l 54 -86 q 145 -81 113 -86 q 193 -46 178 -75 q 212 44 208 -17 q 215 215 215 106 l 215 622 l 39 622 l 39 736 l 504 736 l 504 622 l 344 622 l 344 215 z "},".":{"ha":450,"x_min":111,"x_max":339,"o":"m 339 201 l 339 -25 l 111 -25 l 111 201 l 339 201 z "},",":{"ha":453,"x_min":28,"x_max":383,"o":"m 383 171 l 208 -261 l 28 -261 l 194 171 l 383 171 z "},"a":{"ha":1042,"x_min":83,"x_max":931,"o":"m 700 206 q 627 26 699 88 q 419 -35 556 -35 l 372 -35 q 161 27 236 -35 q 83 215 86 89 q 160 398 83 339 q 372 457 236 457 l 799 457 q 764 558 792 518 q 699 620 736 597 q 617 652 661 643 q 536 661 574 661 l 522 661 q 444 656 485 661 q 367 635 404 650 q 299 596 329 621 q 253 531 268 571 l 117 531 q 156 629 124 585 q 242 706 189 674 q 366 757 296 739 q 515 775 436 775 l 526 775 q 711 750 635 775 q 836 674 788 725 q 907 543 885 622 q 931 356 929 464 l 931 0 l 801 0 l 801 346 l 658 347 q 700 206 700 290 m 213 215 q 251 115 214 149 q 372 81 289 81 l 419 81 q 538 114 500 81 q 578 215 575 147 q 539 315 575 283 q 419 347 503 347 l 372 347 q 251 315 289 347 q 213 215 214 283 z "},"Ю":{"ha":1492,"x_min":97,"x_max":1451,"o":"m 1451 471 q 1410 247 1450 342 q 1300 90 1371 151 q 1130 -1 1229 29 q 911 -31 1031 -31 q 695 -1 792 -31 q 528 90 599 29 q 419 244 458 151 q 374 465 379 338 l 233 465 l 233 0 l 97 0 l 97 972 l 233 972 l 233 588 l 382 588 q 440 776 397 696 q 552 910 483 857 q 712 990 621 964 q 911 1017 803 1017 q 1130 983 1031 1017 q 1301 885 1229 950 q 1412 722 1372 819 q 1451 496 1451 625 l 1451 471 m 519 483 q 624 191 519 292 q 911 90 728 90 q 1199 190 1094 90 q 1306 483 1304 289 q 1278 656 1306 579 q 1199 785 1250 732 q 1076 867 1149 839 q 911 896 1003 896 q 624 790 728 896 q 519 483 519 683 z "},"б":{"ha":1006,"x_min":69,"x_max":957,"o":"m 957 331 q 923 169 956 239 q 832 53 890 100 q 692 -17 774 7 q 513 -40 611 -40 q 338 -19 419 -40 q 197 49 257 3 q 103 169 138 96 q 69 343 69 242 q 70 474 69 408 q 80 599 71 539 q 110 714 89 660 q 174 810 132 768 q 284 881 217 853 q 450 919 351 910 q 728 953 628 938 q 832 969 829 969 l 831 854 q 769 843 811 850 q 669 831 733 838 q 500 814 604 824 q 302 753 374 803 q 210 617 231 703 q 349 677 269 657 q 524 697 429 697 q 703 676 622 697 q 840 609 783 654 q 926 495 896 564 q 957 331 957 426 m 201 335 q 284 140 204 200 q 511 79 364 79 q 740 138 657 79 q 825 333 822 197 q 746 524 824 469 q 522 579 668 579 q 391 567 450 579 q 290 525 332 554 q 226 449 249 496 q 201 335 203 403 z "},"Ф":{"ha":1331,"x_min":69,"x_max":1261,"o":"m 1261 538 q 1220 333 1261 419 q 1108 192 1179 247 q 942 110 1038 136 q 735 86 846 85 l 735 0 l 597 0 l 597 86 q 390 110 486 85 q 223 191 294 136 q 110 333 151 246 q 69 538 69 419 l 69 557 q 103 735 69 656 q 204 873 138 815 q 369 962 271 931 q 597 994 468 993 l 735 994 q 963 961 864 993 q 1127 872 1061 929 q 1227 735 1193 815 q 1261 557 1261 656 l 1261 538 m 214 547 q 245 385 214 450 q 329 279 276 319 q 451 222 382 239 q 597 204 521 204 l 597 878 q 318 794 421 878 q 214 547 215 711 m 1117 547 q 1013 793 1115 710 q 735 878 911 876 l 735 204 q 881 222 811 204 q 1003 279 950 239 q 1086 385 1056 319 q 1117 547 1117 450 z "},"ф":{"ha":1388,"x_min":42,"x_max":1346,"o":"m 1028 -122 l 1028 -236 l 349 -236 l 349 -122 l 629 -122 l 629 110 q 529 38 590 63 q 381 14 468 13 q 128 94 215 14 q 42 329 42 174 q 60 447 42 389 q 119 551 78 506 q 225 626 160 597 q 385 654 290 654 q 532 628 472 654 q 629 554 592 601 l 629 782 l 349 782 l 349 896 l 1028 896 l 1028 782 l 758 782 l 758 556 q 856 628 796 603 q 1003 654 917 654 q 1163 626 1097 654 q 1269 551 1228 597 q 1328 447 1310 506 q 1346 329 1346 389 q 1259 94 1346 174 q 1008 14 1172 14 q 859 38 921 13 q 758 110 797 63 l 758 -122 l 1028 -122 m 174 325 q 236 173 175 218 q 401 128 297 128 q 629 313 613 128 l 629 363 q 563 497 621 456 q 400 539 504 539 q 312 527 353 539 q 240 489 271 515 q 192 422 210 463 q 174 325 175 382 m 758 338 q 815 181 760 233 q 986 128 871 128 q 1151 173 1090 128 q 1214 325 1213 218 q 1196 422 1214 382 q 1148 489 1178 463 q 1077 527 1118 515 q 988 539 1036 539 q 818 492 876 539 q 758 338 760 444 z "},"s":{"ha":903,"x_min":56,"x_max":847,"o":"m 847 219 q 832 128 847 172 q 774 49 817 83 q 655 -6 732 15 q 454 -26 578 -26 q 268 -5 343 -26 q 147 53 193 17 q 79 138 100 90 q 56 239 58 186 l 185 239 q 217 156 189 186 q 287 112 244 126 q 381 94 329 97 q 485 90 432 90 q 658 123 601 90 q 715 208 715 156 q 690 265 715 243 q 624 299 665 286 q 530 319 583 311 q 419 332 476 326 q 283 351 347 340 q 172 383 219 363 q 97 439 125 404 q 69 529 69 474 q 85 621 69 576 q 145 699 101 665 q 266 754 189 733 q 467 775 343 775 q 648 751 578 775 q 758 690 718 728 q 815 606 799 653 q 833 510 831 558 l 704 510 q 678 590 699 560 q 625 635 658 619 q 546 655 592 650 q 443 660 500 660 q 258 626 314 660 q 201 540 201 593 q 228 494 201 511 q 299 466 256 476 q 393 450 342 456 q 492 439 444 444 q 630 418 565 431 q 742 382 694 406 q 819 319 790 358 q 847 219 847 281 z "},"ā":{"ha":982,"x_min":49,"x_max":897,"o":"m 767 135 q 622 20 715 65 q 382 -25 528 -25 l 335 -25 q 237 -12 288 -25 q 144 29 186 1 q 76 103 103 57 q 49 213 49 149 q 65 303 49 261 q 117 378 82 346 q 210 428 153 410 q 346 446 267 446 l 764 446 q 731 554 756 513 q 672 620 707 596 q 592 653 636 644 q 500 661 549 661 l 486 661 q 410 656 450 661 q 332 635 369 650 q 265 595 294 621 q 219 529 235 569 l 151 529 q 82 531 121 529 q 124 629 90 585 q 210 706 157 674 q 332 757 263 739 q 481 775 401 775 l 492 775 q 677 750 600 775 q 803 674 754 725 q 874 543 851 622 q 897 356 896 464 l 896 0 l 767 0 l 767 135 m 181 213 q 199 149 181 174 q 244 112 217 125 q 304 94 272 99 q 363 90 336 90 q 505 109 439 90 q 624 160 571 128 q 716 235 676 192 q 778 331 756 279 l 425 331 q 306 322 353 331 q 231 298 258 314 q 192 260 203 282 q 181 213 181 239 z "},"ă":{"ha":965,"x_min":49,"x_max":892,"o":"m 763 129 q 617 18 710 61 q 382 -25 525 -25 l 335 -25 q 237 -12 288 -25 q 144 29 186 1 q 76 103 103 57 q 49 213 49 149 q 65 303 49 261 q 117 378 82 346 q 210 428 153 410 q 346 446 267 446 l 763 446 l 763 621 l 149 624 l 149 736 l 892 736 l 892 0 l 763 0 l 763 129 m 181 213 q 199 149 181 174 q 244 111 217 125 q 304 93 272 97 q 363 89 336 89 q 505 108 439 89 q 623 159 571 126 q 712 235 675 192 q 765 331 749 279 l 425 331 q 306 322 353 331 q 231 298 258 314 q 192 260 203 282 q 181 213 181 239 z "},"ğ":{"ha":1093,"x_min":72,"x_max":1040,"o":"m 1018 113 q 987 -35 1022 26 q 891 -135 951 -96 q 752 -192 831 -174 q 590 -210 674 -210 l 510 -210 q 324 -186 406 -210 q 187 -121 243 -162 q 101 -22 131 -79 q 72 99 72 35 l 221 97 q 229 38 217 71 q 275 -24 242 4 q 365 -72 308 -53 q 506 -92 421 -92 l 574 -92 q 606 -90 579 -92 q 667 -84 632 -89 q 743 -67 703 -79 q 817 -35 783 -56 q 872 16 850 -15 q 894 93 894 47 q 878 160 894 133 q 843 203 863 188 q 713 145 783 163 q 579 128 643 128 l 514 128 q 368 144 439 128 q 242 199 297 161 q 154 301 188 238 q 121 457 121 364 q 156 605 121 543 q 248 706 192 667 q 374 764 304 746 q 514 782 444 782 l 579 782 q 681 771 628 782 q 785 736 735 760 l 1040 736 l 1040 628 l 900 653 q 953 567 933 615 q 974 457 974 519 q 956 349 972 396 q 910 265 939 301 q 983 207 950 243 q 1018 113 1015 171 m 558 239 q 662 251 613 239 q 750 288 711 263 q 812 356 789 314 q 835 460 835 399 q 806 572 835 531 q 735 635 778 613 q 645 663 693 657 q 558 669 597 669 l 519 669 q 408 653 457 669 q 325 607 358 636 q 275 540 292 578 q 260 460 258 501 q 282 351 260 393 q 342 283 304 308 q 429 249 379 258 q 536 239 479 239 l 558 239 z "},"ġ":{"ha":1029,"x_min":56,"x_max":946,"o":"m 944 -189 l 944 -235 l 118 -235 l 118 -117 l 815 -117 l 815 118 q 499 3 722 3 q 315 25 396 3 q 176 94 233 47 q 88 212 119 140 q 56 382 57 283 q 86 553 56 481 q 174 672 117 625 q 313 743 231 719 q 496 767 394 767 q 828 632 738 765 l 815 735 l 946 735 l 944 -189 m 186 383 q 268 179 189 242 q 499 117 347 117 q 723 172 642 117 q 815 357 804 228 l 815 411 q 722 597 804 542 q 494 653 639 653 q 266 590 343 651 q 186 383 189 528 z "},"-":{"ha":651,"x_min":56,"x_max":596,"o":"m 596 514 l 596 410 l 56 410 l 56 514 l 596 514 z "},"—":{"ha":1367,"x_min":56,"x_max":1311,"o":"m 1311 583 l 1311 478 l 56 478 l 56 583 l 1311 583 z "},"(":{"ha":544,"x_min":56,"x_max":489,"o":"m 178 379 q 204 157 178 256 q 274 -11 231 58 q 373 -117 317 -81 q 489 -154 429 -154 l 489 -265 q 328 -224 407 -265 q 190 -101 250 -182 q 92 101 129 -19 q 56 376 56 221 q 92 649 56 533 q 190 842 129 765 q 328 956 250 918 q 489 994 407 994 l 489 883 q 373 851 429 883 q 273 754 317 818 q 203 597 229 690 q 178 379 178 503 z "},")":{"ha":544,"x_min":56,"x_max":489,"o":"m 489 376 q 452 101 489 221 q 355 -101 415 -19 q 216 -224 294 -182 q 56 -265 138 -265 l 56 -154 q 173 -117 117 -154 q 272 -11 229 -81 q 342 157 315 58 q 368 379 368 256 q 342 597 368 503 q 272 754 315 690 q 173 851 229 818 q 56 883 117 883 l 56 994 q 216 956 138 994 q 355 842 294 918 q 452 649 415 765 q 489 376 489 533 z "},"]":{"ha":501,"x_min":56,"x_max":418,"o":"m 418 979 l 418 -253 l 56 -253 l 56 -149 l 300 -149 l 300 875 l 56 875 l 56 979 l 418 979 z "},"[":{"ha":501,"x_min":83,"x_max":446,"o":"m 446 -149 l 446 -253 l 83 -253 l 83 979 l 446 979 l 446 875 l 201 875 l 201 -149 l 446 -149 z "},"{":{"ha":576,"x_min":83,"x_max":521,"o":"m 469 -265 q 369 -250 418 -265 q 283 -203 321 -235 q 223 -124 246 -172 q 200 -11 200 -76 l 200 161 q 189 218 200 194 q 161 256 178 242 q 124 276 144 269 q 83 282 103 282 l 83 446 q 124 452 103 446 q 161 472 144 458 q 189 510 178 486 q 200 567 200 533 l 200 739 q 223 852 200 804 q 283 931 246 900 q 369 978 321 963 q 469 993 418 993 l 521 993 l 521 889 l 464 889 q 413 881 439 889 q 367 856 388 874 q 332 808 346 838 q 318 738 318 779 l 318 611 q 311 515 318 557 q 288 442 304 472 q 242 392 271 411 q 169 364 214 372 q 242 335 214 356 q 288 285 271 315 q 311 213 304 254 q 318 117 318 171 l 318 -11 q 332 -82 318 -53 q 367 -128 346 -111 q 413 -153 388 -146 q 464 -161 439 -161 l 521 -161 l 521 -265 l 469 -265 z "},"}":{"ha":576,"x_min":56,"x_max":493,"o":"m 376 -11 q 354 -124 376 -76 q 294 -203 332 -172 q 208 -250 257 -235 q 110 -265 160 -265 l 56 -265 l 56 -161 l 113 -161 q 163 -153 138 -161 q 210 -128 189 -146 q 244 -82 231 -111 q 258 -11 258 -53 l 258 117 q 265 213 258 171 q 289 286 272 256 q 334 336 306 317 q 407 364 363 356 q 334 392 363 372 q 289 442 306 411 q 265 515 272 472 q 258 611 258 557 l 258 738 q 244 808 258 779 q 210 856 231 838 q 163 881 189 874 q 113 889 138 889 l 56 889 l 56 993 l 110 993 q 208 978 160 993 q 294 931 257 963 q 354 852 332 900 q 376 739 376 804 l 376 567 q 388 510 376 533 q 415 472 399 486 q 453 452 432 458 q 493 446 474 446 l 493 282 q 453 276 474 282 q 415 256 432 269 q 388 218 399 242 q 376 161 376 194 l 376 -11 z "},"?":{"ha":1057,"x_min":111,"x_max":949,"o":"m 714 453 q 643 425 671 436 q 601 399 615 414 q 581 359 586 383 q 575 292 575 335 l 440 292 q 448 403 440 360 q 481 475 456 446 q 551 525 506 504 q 674 568 597 546 q 738 594 713 579 q 777 628 763 610 q 798 665 792 646 q 804 706 804 685 q 793 768 804 738 q 753 823 782 799 q 677 863 725 847 q 554 878 629 878 q 406 861 465 878 q 313 811 347 844 q 264 728 278 778 q 250 614 250 679 l 111 614 q 116 708 111 661 q 137 797 121 754 q 182 877 153 840 q 259 941 211 914 q 377 983 307 968 q 543 999 447 999 q 733 974 656 999 q 857 910 810 950 q 925 818 904 869 q 946 713 946 767 q 941 638 949 675 q 908 567 933 600 q 835 504 882 533 q 714 453 789 475 m 610 174 l 610 -25 l 410 -25 l 410 174 l 610 174 z "},"|":{"ha":313,"x_min":97,"x_max":217,"o":"m 217 1044 l 215 -349 l 97 -349 l 99 1044 l 217 1044 z "},"!":{"ha":450,"x_min":139,"x_max":339,"o":"m 317 972 l 310 311 l 175 311 l 168 972 l 317 972 m 339 174 l 339 -25 l 139 -25 l 139 174 l 339 174 z "},"#":{"ha":1401,"x_min":83,"x_max":1318,"o":"m 404 243 l 296 0 l 167 0 l 275 243 l 83 243 l 83 347 l 321 347 l 449 636 l 238 636 l 238 740 l 496 740 l 599 972 l 728 972 l 625 740 l 1003 740 l 1106 972 l 1235 972 l 1126 740 l 1318 740 l 1318 636 l 1085 636 l 951 347 l 1164 347 l 1164 243 l 911 243 l 803 0 l 674 0 l 782 243 l 404 243 m 450 347 l 828 347 l 956 636 l 578 636 l 450 347 z "},"@":{"ha":1638,"x_min":83,"x_max":1564,"o":"m 1028 -175 q 980 -180 1007 -178 q 924 -183 953 -182 q 866 -185 894 -185 q 815 -186 838 -186 q 509 -151 643 -186 q 283 -46 375 -117 q 140 134 190 25 q 83 393 89 243 q 142 688 83 568 q 304 883 201 808 q 545 992 407 958 q 842 1025 683 1025 q 1161 981 1025 1025 q 1387 851 1297 936 q 1520 645 1476 767 q 1564 369 1564 524 q 1558 246 1564 307 q 1528 137 1551 185 q 1461 60 1506 89 q 1342 31 1417 31 q 1185 79 1235 31 q 1133 215 1136 128 q 1072 142 1108 176 q 988 83 1036 108 q 878 42 939 57 q 740 28 817 28 l 693 28 q 596 41 646 28 q 504 82 546 54 q 435 156 463 110 q 408 265 408 201 q 425 356 408 314 q 477 431 442 399 q 569 481 513 463 q 704 499 625 499 l 1122 499 q 1090 608 1114 565 q 1030 675 1065 651 q 951 708 994 699 q 860 717 907 717 l 846 717 q 769 711 808 717 q 695 691 731 706 q 631 650 660 676 q 585 583 601 624 l 442 583 q 483 682 450 638 q 569 759 517 726 q 692 810 622 792 q 840 828 761 828 l 850 828 q 1033 803 957 828 q 1158 726 1110 778 q 1230 597 1207 675 q 1254 410 1253 518 l 1254 228 q 1258 199 1254 214 q 1271 170 1261 183 q 1297 149 1281 157 q 1340 140 1314 140 q 1428 194 1404 140 q 1451 351 1451 249 l 1451 376 q 1408 624 1451 521 q 1285 792 1365 726 q 1093 890 1206 858 q 843 921 981 921 q 367 792 529 921 q 204 408 204 663 q 245 194 204 286 q 365 41 286 103 q 557 -51 443 -21 q 818 -82 671 -82 q 887 -80 849 -82 q 957 -74 925 -78 q 1010 -69 989 -71 q 1028 -67 1031 -67 l 1028 -175 m 539 265 q 558 201 539 226 q 603 163 576 176 q 663 144 631 149 q 722 139 696 139 q 866 158 800 139 q 984 212 932 178 q 1072 291 1036 246 q 1126 388 1108 336 l 783 388 q 664 378 711 388 q 589 353 617 369 q 550 314 561 336 q 539 265 539 292 z "},"$":{"ha":1074,"x_min":122,"x_max":935,"o":"m 934 309 q 913 211 934 256 q 844 135 892 167 q 716 85 795 103 q 519 67 637 67 q 326 94 400 67 q 207 163 251 121 q 146 256 164 205 q 123 357 127 308 l 242 357 q 319 216 249 266 q 522 166 389 166 q 738 198 659 166 q 819 301 818 230 q 749 402 820 372 q 529 442 678 433 q 357 455 430 445 q 237 489 285 465 q 168 553 190 512 q 145 659 145 593 q 168 751 145 707 q 239 828 190 795 q 364 881 288 861 q 549 901 441 901 q 737 875 665 901 q 852 808 810 849 q 912 717 894 768 q 934 617 929 667 l 814 617 q 789 705 810 670 q 732 762 767 741 q 649 793 696 784 q 546 802 602 802 q 429 794 481 802 q 339 769 377 786 q 281 728 301 753 q 260 667 260 703 q 276 609 260 632 q 327 571 292 586 q 417 550 362 557 q 546 538 471 543 q 722 520 649 533 q 843 481 795 507 q 912 413 890 455 q 934 309 934 372 m 599 1075 l 597 -135 l 479 -135 l 481 1075 l 599 1075 z "},"%":{"ha":1586,"x_min":83,"x_max":1503,"o":"m 1071 972 l 639 0 l 508 0 l 939 972 l 1071 972 m 682 665 q 606 449 682 529 q 385 369 529 369 q 162 449 240 369 q 83 665 83 529 q 162 872 83 800 q 385 944 240 944 q 606 872 529 944 q 682 665 682 800 m 201 653 q 243 522 203 569 q 379 474 283 474 l 385 474 q 522 520 481 474 q 563 654 563 567 q 523 790 564 740 q 386 840 482 840 l 381 840 q 242 791 285 840 q 201 653 200 742 m 1503 332 q 1426 116 1503 196 q 1206 36 1350 36 q 983 116 1061 36 q 906 332 906 196 q 983 539 906 467 q 1206 611 1061 611 q 1426 539 1350 611 q 1503 332 1503 467 m 1024 319 q 1065 188 1025 236 q 1200 140 1104 140 l 1207 140 q 1343 187 1303 140 q 1385 321 1383 233 q 1344 457 1385 407 q 1208 507 1304 507 l 1203 507 q 1064 458 1106 507 q 1024 319 1022 408 z "},"^":{"ha":638,"x_min":14,"x_max":582,"o":"m 297 965 l 132 557 l 14 557 l 211 1044 l 383 1044 l 582 557 l 464 557 l 297 965 z "},"*":{"ha":774,"x_min":69,"x_max":704,"o":"m 447 653 l 451 436 l 333 436 l 338 661 l 143 515 l 69 608 l 274 746 l 69 876 l 143 971 l 338 833 l 333 1057 l 451 1057 l 447 842 l 631 971 l 704 876 l 499 746 l 703 608 l 631 515 l 447 653 z "},"_":{"ha":711,"x_min":56,"x_max":656,"o":"m 656 104 l 656 0 l 56 0 l 56 104 l 656 104 z "},"+":{"ha":792,"x_min":42,"x_max":750,"o":"m 457 432 l 457 154 l 339 154 l 339 432 l 42 432 l 42 536 l 339 536 l 339 810 l 457 810 l 457 536 l 750 536 l 750 432 l 457 432 z "},"=":{"ha":792,"x_min":69,"x_max":722,"o":"m 722 675 l 722 571 l 69 571 l 69 675 l 722 675 m 722 397 l 722 293 l 69 293 l 69 397 l 722 397 z "},";":{"ha":411,"x_min":14,"x_max":369,"o":"m 328 826 l 328 628 l 128 628 l 128 826 l 328 826 m 369 171 l 194 -261 l 14 -261 l 181 171 l 369 171 z "},":":{"ha":424,"x_min":125,"x_max":326,"o":"m 326 826 l 326 628 l 126 628 l 126 826 l 326 826 m 325 174 l 325 -25 l 125 -25 l 125 174 l 325 174 z "},"№":{"ha":1718,"x_min":82,"x_max":1656,"o":"m 218 882 l 218 0 l 82 0 l 82 972 l 322 972 l 851 100 l 851 972 l 988 972 l 988 0 l 751 0 l 218 882 m 1656 460 q 1579 258 1656 329 q 1369 188 1503 188 q 1157 258 1236 188 q 1078 460 1078 329 q 1157 653 1078 590 q 1369 715 1236 715 q 1579 653 1503 715 q 1656 460 1656 590 m 1194 447 q 1245 331 1196 369 q 1365 293 1294 293 l 1371 293 q 1436 302 1406 293 q 1490 330 1467 311 q 1526 378 1513 349 q 1539 449 1539 408 q 1526 519 1539 489 q 1492 570 1514 550 q 1439 601 1469 590 q 1372 611 1408 611 l 1367 611 q 1299 601 1331 611 q 1244 572 1268 592 q 1208 520 1221 551 q 1194 447 1194 489 m 1629 104 l 1629 0 l 1108 0 l 1108 104 l 1629 104 z "},"\"":{"ha":632,"x_min":139,"x_max":493,"o":"m 257 1042 l 257 635 l 139 635 l 139 1042 l 257 1042 m 493 1042 l 493 635 l 375 635 l 375 1042 l 493 1042 z "},"₴":{"ha":763,"x_min":0,"x_max":0,"o":""},"«":{"ha":928,"x_min":69,"x_max":789,"o":"m 444 250 l 444 128 l 69 353 l 69 483 l 444 710 l 444 588 l 167 419 l 444 250 m 789 250 l 789 128 l 414 353 l 414 483 l 789 710 l 789 588 l 511 419 l 789 250 z "},"»":{"ha":928,"x_min":139,"x_max":858,"o":"m 858 353 l 483 128 l 483 250 l 761 419 l 483 588 l 483 710 l 858 483 l 858 353 m 514 353 l 139 128 l 139 250 l 417 419 l 139 588 l 139 710 l 514 483 l 514 353 z "},"<":{"ha":917,"x_min":83,"x_max":750,"o":"m 750 286 l 750 168 l 83 392 l 83 564 l 750 831 l 750 714 l 169 481 l 750 286 z "},">":{"ha":917,"x_min":167,"x_max":833,"o":"m 833 392 l 167 168 l 167 286 l 747 481 l 167 714 l 167 831 l 833 564 l 833 392 z "},"~":{"ha":883,"x_min":56,"x_max":828,"o":"m 828 478 q 751 408 800 433 q 636 383 701 383 q 556 393 599 383 q 469 422 514 403 l 392 461 q 264 496 324 496 q 177 475 214 496 q 119 421 140 454 l 56 510 q 143 585 88 558 q 267 613 199 613 q 338 605 301 613 q 410 581 374 597 l 489 540 q 635 501 567 501 q 708 517 675 501 q 765 567 742 532 l 828 478 z "},"&":{"ha":1322,"x_min":97,"x_max":1253,"o":"m 971 125 q 772 8 881 47 q 549 -31 664 -31 q 393 -15 474 -31 q 247 44 313 1 q 140 160 182 86 q 97 351 97 235 q 115 472 97 414 q 176 575 132 531 q 294 647 219 619 q 482 675 368 674 l 328 850 l 322 850 l 322 972 l 1069 972 l 1069 850 l 501 850 l 971 318 q 1048 483 1019 390 q 1076 694 1076 576 l 1218 694 q 1172 426 1214 546 q 1060 218 1131 307 l 1253 0 l 1081 0 l 971 125 m 240 360 q 265 233 240 285 q 333 151 290 182 q 433 106 375 119 q 557 92 490 92 q 728 124 643 92 q 885 221 813 156 l 588 556 q 428 551 494 565 q 321 510 363 538 q 260 442 279 482 q 240 360 240 403 z "},"\\":{"ha":554,"x_min":22,"x_max":500,"o":"m 147 1042 l 500 -108 l 374 -108 l 22 1042 l 147 1042 z "},"/":{"ha":532,"x_min":22,"x_max":500,"o":"m 500 1042 l 149 -108 l 22 -108 l 375 1042 l 500 1042 z "},"–":{"ha":707,"x_min":83,"x_max":624,"o":"m 624 514 l 624 410 l 83 410 l 83 514 l 624 514 z "},"−":{"ha":715,"x_min":69,"x_max":646,"o":"m 646 536 l 646 432 l 69 432 l 69 536 l 646 536 z "},"'":{"ha":447,"x_min":57,"x_max":413,"o":"m 413 1042 l 238 611 l 57 611 l 224 1042 l 413 1042 z "},"•":{"ha":610,"x_min":97,"x_max":513,"o":"m 513 497 q 457 353 513 406 q 306 301 401 301 q 153 353 210 301 q 97 497 97 406 q 153 642 97 589 q 306 694 210 694 q 457 642 401 694 q 513 497 513 589 z "},"×":{"ha":851,"x_min":97,"x_max":754,"o":"m 754 267 l 671 183 l 426 417 l 181 183 l 97 267 l 326 485 l 99 701 l 182 785 l 426 553 l 671 785 l 754 701 l 526 485 l 754 267 z "},"‘":{"ha":629,"x_min":88,"x_max":443,"o":"m 443 990 l 268 558 l 88 558 l 254 990 l 443 990 z "},"’":{"ha":529,"x_min":35,"x_max":385,"o":"m 385 990 l 215 558 l 35 558 l 201 990 l 385 990 z "},"©":{"ha":1661,"x_min":97,"x_max":1564,"o":"m 1564 393 q 1508 134 1558 243 q 1363 -46 1457 25 q 1135 -151 1269 -117 q 829 -186 1001 -186 q 523 -151 657 -186 q 297 -46 389 -117 q 153 134 204 25 q 97 393 103 243 l 97 424 q 154 681 103 571 q 297 866 206 792 q 516 980 388 940 q 806 1024 644 1019 l 856 1024 q 1145 980 1017 1019 q 1365 866 1274 940 q 1507 681 1456 792 q 1564 424 1558 571 l 1564 393 m 218 408 q 378 41 218 164 q 831 -82 538 -82 q 1283 41 1124 -82 q 1443 408 1443 164 q 1288 790 1443 658 q 831 921 1132 921 q 374 790 529 921 q 218 408 218 658 m 1253 297 q 1112 92 1221 158 q 838 26 1003 26 q 659 50 739 26 q 522 122 579 74 q 435 246 465 171 q 403 424 404 321 q 433 602 403 526 q 520 728 464 678 q 657 802 576 778 q 836 826 738 826 q 1112 760 1000 826 q 1254 554 1224 694 l 1114 554 q 1017 676 1089 638 q 835 713 944 714 q 613 644 688 711 q 535 425 538 576 q 614 208 538 276 q 838 140 690 140 q 1018 178 949 140 q 1115 297 1088 215 l 1253 297 z "},"→":{"ha":1510,"x_min":111,"x_max":1399,"o":"m 1399 464 l 1024 239 l 1024 361 l 1214 478 l 111 478 l 111 583 l 1214 583 l 1024 699 l 1024 821 l 1399 594 l 1399 464 z "},"…":{"ha":1350,"x_min":111,"x_max":1239,"o":"m 339 201 l 339 -25 l 111 -25 l 111 201 l 339 201 m 789 201 l 789 -25 l 561 -25 l 561 201 l 789 201 m 1239 201 l 1239 -25 l 1011 -25 l 1011 201 l 1239 201 z "},"≈":{"ha":911,"x_min":69,"x_max":842,"o":"m 842 619 q 754 544 810 571 q 631 517 699 517 q 560 524 596 517 q 488 549 524 532 l 408 589 q 263 628 331 628 q 189 613 222 628 q 132 563 156 597 l 69 638 q 147 707 97 682 q 261 732 196 732 q 341 722 299 732 q 428 693 383 713 l 506 654 q 633 619 574 619 q 720 640 683 619 q 778 694 757 661 l 842 619 m 842 368 q 754 292 810 319 q 631 265 699 265 q 560 273 596 265 q 488 297 524 281 l 408 338 q 263 376 331 376 q 189 361 222 376 q 132 311 156 346 l 69 386 q 147 456 97 431 q 261 481 196 481 q 341 471 299 481 q 428 442 383 461 l 506 403 q 633 368 574 368 q 720 389 683 368 q 778 443 757 410 l 842 368 z "},"а":{"ha":1042,"x_min":83,"x_max":931,"o":"m 700 206 q 627 26 699 88 q 419 -35 556 -35 l 372 -35 q 161 27 236 -35 q 83 215 86 89 q 160 398 83 339 q 372 457 236 457 l 799 457 q 764 558 792 518 q 699 620 736 597 q 617 652 661 643 q 536 661 574 661 l 522 661 q 444 656 485 661 q 367 635 404 650 q 299 596 329 621 q 253 531 268 571 l 117 531 q 156 629 124 585 q 242 706 189 674 q 366 757 296 739 q 515 775 436 775 l 526 775 q 711 750 635 775 q 836 674 788 725 q 907 543 885 622 q 931 356 929 464 l 931 0 l 801 0 l 801 346 l 658 347 q 700 206 700 290 m 213 215 q 251 115 214 149 q 372 81 289 81 l 419 81 q 538 114 500 81 q 578 215 575 147 q 539 315 575 283 q 419 347 503 347 l 372 347 q 251 315 289 347 q 213 215 214 283 z "},"З":{"ha":1194,"x_min":56,"x_max":1139,"o":"m 1139 300 q 1110 161 1139 218 q 1034 67 1081 104 q 928 10 988 31 q 808 -19 868 -10 q 691 -29 747 -28 q 594 -31 635 -31 q 354 -6 456 -31 q 188 62 253 18 q 90 167 122 106 q 56 301 57 228 l 204 301 q 228 223 204 261 q 300 156 251 185 q 422 109 349 126 q 596 92 496 92 q 900 142 806 92 q 994 285 994 193 q 935 423 994 385 q 740 461 875 461 l 322 461 l 322 583 l 690 583 q 807 593 760 583 q 883 622 854 603 q 923 669 911 640 q 935 736 935 699 q 922 792 935 765 q 876 838 908 818 q 789 870 844 858 q 650 882 733 882 q 470 863 547 882 q 336 810 393 843 q 238 733 279 776 q 165 643 197 690 l 61 728 q 76 749 63 729 q 119 801 90 769 q 192 867 147 832 q 301 933 238 903 q 450 984 365 964 q 642 1004 535 1004 q 968 939 857 1004 q 1079 739 1079 874 q 1047 613 1079 663 q 965 535 1014 564 q 1033 502 1001 522 q 1088 453 1064 482 q 1125 387 1111 425 q 1139 300 1139 349 z "},"“":{"ha":915,"x_min":88,"x_max":794,"o":"m 443 990 l 268 558 l 88 558 l 254 990 l 443 990 m 794 990 l 619 558 l 439 558 l 606 990 l 794 990 z "},"”":{"ha":900,"x_min":88,"x_max":794,"o":"m 443 990 l 268 558 l 88 558 l 254 990 l 443 990 m 794 990 l 619 558 l 439 558 l 606 990 l 794 990 z "},"±":{"ha":794,"x_min":0,"x_max":0,"o":""},"„":{"ha":911,"x_min":82,"x_max":789,"o":"m 438 85 l 263 -347 l 82 -347 l 249 85 l 438 85 m 789 85 l 614 -347 l 433 -347 l 600 85 l 789 85 z "}}}
